<svg width="50" height="50" viewBox="0 0 50 50" fill="none" xmlns="http://www.w3.org/2000/svg">
<g filter="url(#filter0_i_1_2771)">
<rect width="50" height="50" rx="25" fill="url(#paint0_linear_1_2771)"/>
<rect x="0.15" y="0.15" width="49.7" height="49.7" rx="24.85" stroke="url(#paint1_linear_1_2771)" stroke-width="0.3"/>
<rect x="12.75" y="12.75" width="24.5" height="24.5" rx="6" fill="url(#paint2_radial_1_2771)"/>
<rect x="12.75" y="12.75" width="24.5" height="24.5" rx="6" fill="url(#paint3_radial_1_2771)"/>
<rect x="12.75" y="12.75" width="24.5" height="24.5" rx="6" fill="url(#paint4_radial_1_2771)"/>
<path d="M31.125 20.1875C31.125 20.9124 30.5374 21.5 29.8125 21.5C29.0876 21.5 28.5 20.9124 28.5 20.1875C28.5 19.4626 29.0876 18.875 29.8125 18.875C30.5374 18.875 31.125 19.4626 31.125 20.1875Z" fill="white"/>
<path fill-rule="evenodd" clip-rule="evenodd" d="M25 29.375C27.4162 29.375 29.375 27.4162 29.375 25C29.375 22.5838 27.4162 20.625 25 20.625C22.5838 20.625 20.625 22.5838 20.625 25C20.625 27.4162 22.5838 29.375 25 29.375ZM25 27.625C26.4497 27.625 27.625 26.4497 27.625 25C27.625 23.5503 26.4497 22.375 25 22.375C23.5503 22.375 22.375 23.5503 22.375 25C22.375 26.4497 23.5503 27.625 25 27.625Z" fill="white"/>
<path fill-rule="evenodd" clip-rule="evenodd" d="M16.25 24.65C16.25 21.7097 16.25 20.2396 16.8222 19.1165C17.3256 18.1287 18.1287 17.3256 19.1165 16.8222C20.2396 16.25 21.7097 16.25 24.65 16.25H25.35C28.2903 16.25 29.7604 16.25 30.8835 16.8222C31.8713 17.3256 32.6744 18.1287 33.1778 19.1165C33.75 20.2396 33.75 21.7097 33.75 24.65V25.35C33.75 28.2903 33.75 29.7604 33.1778 30.8835C32.6744 31.8713 31.8713 32.6744 30.8835 33.1778C29.7604 33.75 28.2903 33.75 25.35 33.75H24.65C21.7097 33.75 20.2396 33.75 19.1165 33.1778C18.1287 32.6744 17.3256 31.8713 16.8222 30.8835C16.25 29.7604 16.25 28.2903 16.25 25.35V24.65ZM24.65 18H25.35C26.849 18 27.868 18.0014 28.6557 18.0657C29.4229 18.1284 29.8153 18.242 30.089 18.3815C30.7475 18.717 31.283 19.2525 31.6185 19.911C31.758 20.1847 31.8716 20.5771 31.9343 21.3443C31.9986 22.132 32 23.151 32 24.65V25.35C32 26.849 31.9986 27.868 31.9343 28.6557C31.8716 29.4229 31.758 29.8153 31.6185 30.089C31.283 30.7475 30.7475 31.283 30.089 31.6185C29.8153 31.758 29.4229 31.8716 28.6557 31.9343C27.868 31.9986 26.849 32 25.35 32H24.65C23.151 32 22.132 31.9986 21.3443 31.9343C20.5771 31.8716 20.1847 31.758 19.911 31.6185C19.2525 31.283 18.717 30.7475 18.3815 30.089C18.242 29.8153 18.1284 29.4229 18.0657 28.6557C18.0014 27.868 18 26.849 18 25.35V24.65C18 23.151 18.0014 22.132 18.0657 21.3443C18.1284 20.5771 18.242 20.1847 18.3815 19.911C18.717 19.2525 19.2525 18.717 19.911 18.3815C20.1847 18.242 20.5771 18.1284 21.3443 18.0657C22.132 18.0014 23.151 18 24.65 18Z" fill="white"/>
</g>
<defs>
<filter id="filter0_i_1_2771" x="0" y="0" width="50" height="51" filterUnits="userSpaceOnUse" color-interpolation-filters="sRGB">
<feFlood flood-opacity="0" result="BackgroundImageFix"/>
<feBlend mode="normal" in="SourceGraphic" in2="BackgroundImageFix" result="shape"/>
<feColorMatrix in="SourceAlpha" type="matrix" values="0 0 0 0 0 0 0 0 0 0 0 0 0 0 0 0 0 0 127 0" result="hardAlpha"/>
<feOffset dy="1"/>
<feGaussianBlur stdDeviation="1"/>
<feComposite in2="hardAlpha" operator="arithmetic" k2="-1" k3="1"/>
<feColorMatrix type="matrix" values="0 0 0 0 0 0 0 0 0 0 0 0 0 0 0 0 0 0 0.12 0"/>
<feBlend mode="normal" in2="shape" result="effect1_innerShadow_1_2771"/>
</filter>
<linearGradient id="paint0_linear_1_2771" x1="25" y1="0" x2="25" y2="50" gradientUnits="userSpaceOnUse">
<stop stop-opacity="0.16"/>
<stop offset="1" stop-opacity="0.16"/>
</linearGradient>
<linearGradient id="paint1_linear_1_2771" x1="25" y1="0" x2="25" y2="50" gradientUnits="userSpaceOnUse">
<stop stop-opacity="0.12"/>
<stop offset="1" stop-opacity="0.2"/>
</linearGradient>
<radialGradient id="paint2_radial_1_2771" cx="0" cy="0" r="1" gradientUnits="userSpaceOnUse" gradientTransform="translate(21.5 31.125) rotate(-55.3758) scale(22.3297)">
<stop stop-color="#B13589"/>
<stop offset="0.79309" stop-color="#C62F94"/>
<stop offset="1" stop-color="#8A3AC8"/>
</radialGradient>
<radialGradient id="paint3_radial_1_2771" cx="0" cy="0" r="1" gradientUnits="userSpaceOnUse" gradientTransform="translate(20.625 38.125) rotate(-65.1363) scale(19.77)">
<stop stop-color="#E0E8B7"/>
<stop offset="0.444662" stop-color="#FB8A2E"/>
<stop offset="0.71474" stop-color="#E2425C"/>
<stop offset="1" stop-color="#E2425C" stop-opacity="0"/>
</radialGradient>
<radialGradient id="paint4_radial_1_2771" cx="0" cy="0" r="1" gradientUnits="userSpaceOnUse" gradientTransform="translate(11.4375 13.625) rotate(-8.1301) scale(34.0295 7.27856)">
<stop offset="0.156701" stop-color="#406ADC"/>
<stop offset="0.467799" stop-color="#6A45BE"/>
<stop offset="1" stop-color="#6A45BE" stop-opacity="0"/>
</radialGradient>
</defs>
</svg>
