<svg width="50" height="50" viewBox="0 0 50 50" fill="none" xmlns="http://www.w3.org/2000/svg">
<g filter="url(#filter0_i_1_2775)">
<rect width="50" height="50" rx="25" fill="url(#paint0_linear_1_2775)"/>
<rect x="0.15" y="0.15" width="49.7" height="49.7" rx="24.85" stroke="url(#paint1_linear_1_2775)" stroke-width="0.3"/>
<path d="M18.3945 28.3185C18.5312 27.1863 18.9956 26.5525 19.8706 25.9026C21.1226 25.0226 22.6865 25.5204 22.6865 25.5204V22.5671C23.0667 22.5574 23.4471 22.58 23.8232 22.6345V26.4351C23.8232 26.4351 22.2597 25.9372 21.0077 26.8177C20.1331 27.4671 19.6679 28.1014 19.5316 29.2336C19.5273 29.8484 19.6427 30.652 20.174 31.3469C20.0426 31.2795 19.9087 31.2028 19.7723 31.1166C18.602 30.3307 18.3888 29.1517 18.3945 28.3185ZM30.2807 17.1065C29.4194 16.1628 29.0937 15.2099 28.976 14.5405H30.0594C30.0594 14.5405 29.8434 16.2957 31.4178 18.0217L31.4396 18.0449C31.0153 17.778 30.6262 17.4629 30.2807 17.1065ZM35.5 19.7822V23.5064C35.5 23.5064 34.1174 23.4522 33.0942 23.1919C31.6656 22.8279 30.7474 22.2695 30.7474 22.2695C30.7474 22.2695 30.1131 21.8714 30.0618 21.8436V29.5339C30.0618 29.9621 29.9445 31.0315 29.587 31.9234C29.1203 33.0901 28.4001 33.856 28.2676 34.0125C28.2676 34.0125 27.3916 35.0478 25.8462 35.7449C24.4532 36.3738 23.2302 36.3579 22.8646 36.3738C22.8646 36.3738 20.7504 36.4575 18.8479 35.2211C18.4365 34.9486 18.0525 34.64 17.7008 34.2992L17.7103 34.306C19.6133 35.5424 21.727 35.4587 21.727 35.4587C22.093 35.4427 23.3161 35.4587 24.7086 34.8298C26.2526 34.1327 27.13 33.0974 27.13 33.0974C27.2611 32.9409 27.9846 32.175 28.4494 31.0078C28.806 30.1164 28.9242 29.0466 28.9242 28.6184V20.929C28.9755 20.9572 29.6093 21.3553 29.6093 21.3553C29.6093 21.3553 30.528 21.9141 31.9567 22.2777C32.9803 22.538 34.3624 22.5922 34.3624 22.5922V19.6739C34.8353 19.78 35.2383 19.8086 35.5 19.7822Z" fill="#EE1D52"/>
<path d="M34.3629 19.6739V22.5913C34.3629 22.5913 32.9808 22.5371 31.9571 22.2768C30.5285 21.9128 29.6098 21.3544 29.6098 21.3544C29.6098 21.3544 28.976 20.9563 28.9247 20.928V28.6193C28.9247 29.0475 28.8074 30.1173 28.4499 31.0087C27.9832 32.176 27.263 32.9418 27.1305 33.0983C27.1305 33.0983 26.254 34.1336 24.7091 34.8307C23.3166 35.4596 22.0935 35.4437 21.7275 35.4596C21.7275 35.4596 19.6137 35.5433 17.7108 34.3069L17.7013 34.3001C17.5004 34.1056 17.3113 33.9002 17.1349 33.6849C16.5277 32.9445 16.1554 32.069 16.0619 31.8192C16.0617 31.8181 16.0617 31.8171 16.0619 31.816C15.9114 31.3819 15.5952 30.3394 15.6384 29.3296C15.7148 27.5481 16.3415 26.4546 16.5072 26.1807C16.9461 25.4337 17.5168 24.7653 18.1941 24.2053C18.7918 23.7221 19.4692 23.3376 20.1987 23.0677C20.9872 22.7507 21.8316 22.5808 22.6865 22.5671V25.5204C22.6865 25.5204 21.1226 25.0244 19.8711 25.9026C18.996 26.5525 18.5317 27.1863 18.395 28.3185C18.3893 29.1517 18.6025 30.3307 19.7718 31.1171C19.9083 31.2035 20.0422 31.2803 20.1735 31.3473C20.3778 31.6129 20.6265 31.8443 20.9094 32.0322C22.0517 32.7552 23.0089 32.8057 24.2329 32.3361C25.049 32.0221 25.6634 31.3145 25.9483 30.5305C26.1273 30.0409 26.1249 29.548 26.1249 29.0384V14.5405H28.9736C29.0913 15.2099 29.417 16.1628 30.2783 17.1065C30.6238 17.4629 31.0129 17.778 31.4372 18.0449C31.5626 18.1745 32.2035 18.8157 33.0263 19.2093C33.4518 19.4128 33.9002 19.5687 34.3629 19.6739Z" fill="white"/>
<path d="M14.9281 30.9124V30.9146L14.9988 31.1062C14.9907 31.0839 14.9644 31.0161 14.9281 30.9124Z" fill="#69C9D0"/>
<path d="M20.1987 23.0678C19.4693 23.3378 18.7919 23.7222 18.1942 24.2054C17.5167 24.7667 16.946 25.4364 16.5078 26.1849C16.3421 26.4579 15.7153 27.5523 15.6389 29.3338C15.5957 30.3436 15.9119 31.3861 16.0624 31.8202C16.0622 31.8213 16.0622 31.8224 16.0624 31.8234C16.1574 32.071 16.5282 32.9465 17.1354 33.6891C17.3118 33.9044 17.5009 34.1098 17.7018 34.3043C17.0581 33.8776 16.484 33.3618 15.9983 32.7736C15.3963 32.0396 15.025 31.1731 14.9282 30.9174C14.928 30.9156 14.928 30.9138 14.9282 30.9119V30.9088C14.7772 30.4751 14.46 29.4321 14.5042 28.421C14.5806 26.6395 15.2073 25.546 15.373 25.2721C15.8112 24.5235 16.3818 23.8537 17.0595 23.2926C17.657 22.8092 18.3345 22.4248 19.064 22.155C19.519 21.974 19.993 21.8405 20.4779 21.7568C21.2086 21.6346 21.9548 21.624 22.6889 21.7254V22.5673C21.8332 22.5807 20.988 22.7506 20.1987 23.0678Z" fill="#69C9D0"/>
<path d="M28.976 14.5406H26.1273V29.0389C26.1273 29.5485 26.1273 30.04 25.9507 30.531C25.6629 31.3146 25.0509 32.0222 24.2353 32.3362C23.0108 32.8076 22.0536 32.7553 20.9118 32.0322C20.6283 31.8451 20.379 31.6145 20.174 31.3496C21.1468 31.847 22.0176 31.8383 23.0963 31.4233C23.9115 31.1093 24.5244 30.4017 24.8112 29.6177C24.9906 29.1281 24.9883 28.6352 24.9883 28.126V13.625H28.9218C28.9218 13.625 28.8777 13.9854 28.976 14.5406ZM34.3629 18.8672V19.674C33.9011 19.5685 33.4534 19.4127 33.0287 19.2094C32.2059 18.8157 31.565 18.1746 31.4396 18.0449C31.5851 18.1364 31.736 18.2197 31.8916 18.2943C32.892 18.773 33.8771 18.9159 34.3629 18.8672Z" fill="#69C9D0"/>
</g>
<defs>
<filter id="filter0_i_1_2775" x="0" y="0" width="50" height="51" filterUnits="userSpaceOnUse" color-interpolation-filters="sRGB">
<feFlood flood-opacity="0" result="BackgroundImageFix"/>
<feBlend mode="normal" in="SourceGraphic" in2="BackgroundImageFix" result="shape"/>
<feColorMatrix in="SourceAlpha" type="matrix" values="0 0 0 0 0 0 0 0 0 0 0 0 0 0 0 0 0 0 127 0" result="hardAlpha"/>
<feOffset dy="1"/>
<feGaussianBlur stdDeviation="1"/>
<feComposite in2="hardAlpha" operator="arithmetic" k2="-1" k3="1"/>
<feColorMatrix type="matrix" values="0 0 0 0 0 0 0 0 0 0 0 0 0 0 0 0 0 0 0.12 0"/>
<feBlend mode="normal" in2="shape" result="effect1_innerShadow_1_2775"/>
</filter>
<linearGradient id="paint0_linear_1_2775" x1="25" y1="0" x2="25" y2="50" gradientUnits="userSpaceOnUse">
<stop stop-opacity="0.16"/>
<stop offset="1" stop-opacity="0.16"/>
</linearGradient>
<linearGradient id="paint1_linear_1_2775" x1="25" y1="0" x2="25" y2="50" gradientUnits="userSpaceOnUse">
<stop stop-opacity="0.12"/>
<stop offset="1" stop-opacity="0.2"/>
</linearGradient>
</defs>
</svg>
