<svg width="32" height="32" viewBox="0 0 32 32" fill="none" xmlns="http://www.w3.org/2000/svg">
<path d="M2.98315 3.05135C2.45921 2.87669 1.89289 3.15985 1.71824 3.6838C1.5436 4.20775 1.82676 4.77407 2.35069 4.94871L2.70391 5.06645C3.60579 5.36707 4.20205 5.56743 4.64132 5.77177C5.05727 5.96527 5.23711 6.121 5.35233 6.28087C5.46756 6.44073 5.55843 6.66059 5.61045 7.11637C5.66541 7.59772 5.66692 8.22675 5.66692 9.17741V12.7399C5.66689 14.5633 5.66688 16.033 5.8223 17.189C5.98364 18.3891 6.32884 19.3997 7.13139 20.2022C7.93395 21.0047 8.94444 21.3499 10.1446 21.5113C11.3005 21.6667 12.7703 21.6667 14.5937 21.6667H24.0003C24.5525 21.6667 25.0003 21.219 25.0003 20.6667C25.0003 20.1143 24.5525 19.6667 24.0003 19.6667H14.6669C12.753 19.6667 11.4182 19.6646 10.4111 19.5291C9.43272 19.3977 8.91463 19.157 8.5456 18.7881C8.23203 18.4745 8.01117 18.0531 7.87119 17.3334H21.3629C22.6423 17.3334 23.2819 17.3334 23.7828 17.003C24.2837 16.6727 24.5356 16.0849 25.0396 14.909L25.6109 13.5757C26.6903 11.0573 27.23 9.79807 26.6372 8.89904C26.0444 8.00003 24.6744 8.00003 21.9344 8.00003H7.66033C7.65247 7.58977 7.63524 7.21964 7.59755 6.88952C7.52375 6.24309 7.36295 5.64995 6.97481 5.11144C6.58668 4.57295 6.07483 4.23283 5.48492 3.95839C4.92993 3.70021 4.22417 3.46499 3.389 3.18663L2.98315 3.05135Z" fill="white"/>
<path d="M10 24C11.1046 24 12 24.8955 12 26C12 27.1045 11.1046 28 10 28C8.89543 28 8 27.1045 8 26C8 24.8955 8.89543 24 10 24Z" fill="white"/>
<path d="M22 24.0002C23.1045 24.0002 24 24.8956 24 26.0002C24 27.1048 23.1045 28.0002 22 28.0002C20.8955 28.0002 20 27.1048 20 26.0002C20 24.8956 20.8955 24.0002 22 24.0002Z" fill="white"/>
</svg>
