<svg width="110" height="26" viewBox="0 0 110 26" fill="none" xmlns="http://www.w3.org/2000/svg">
<g clip-path="url(#clip0_1_2688)">
<path d="M14.2651 3.13893L12.1713 2.57788L10.4068 9.16315L8.81376 3.21792L6.71987 3.77898L8.44104 10.2023L4.154 5.91534L2.62119 7.44815L7.32353 12.1505L1.46751 10.5814L0.906464 12.6752L7.3049 14.3897C7.23164 14.0737 7.19288 13.7445 7.19288 13.4062C7.19288 11.0118 9.13393 9.07078 11.5283 9.07078C13.9228 9.07078 15.8638 11.0118 15.8638 13.4062C15.8638 13.7423 15.8255 14.0695 15.7532 14.3836L21.5682 15.9417L22.1292 13.8479L15.7053 12.1266L21.5617 10.5574L21.0007 8.46355L14.5771 10.1847L18.8641 5.89774L17.3313 4.36492L12.6941 9.00205L14.2651 3.13893Z" fill="#98A2B3" fill-opacity="0.6"/>
<path d="M15.7471 14.408C15.5675 15.167 15.1885 15.8488 14.6685 16.3951L18.8812 20.6078L20.414 19.075L15.7471 14.408Z" fill="#98A2B3" fill-opacity="0.6"/>
<path d="M14.626 16.4391C14.0997 16.9766 13.4346 17.3778 12.6887 17.5845L14.2216 23.3054L16.3155 22.7444L14.626 16.4391Z" fill="#98A2B3" fill-opacity="0.6"/>
<path d="M12.6105 17.6054C12.2645 17.6944 11.9018 17.7417 11.528 17.7417C11.1275 17.7417 10.7397 17.6874 10.3716 17.5857L8.8373 23.3119L10.9311 23.8729L12.6105 17.6054Z" fill="#98A2B3" fill-opacity="0.6"/>
<path d="M10.2976 17.5646C9.5631 17.3476 8.90983 16.9414 8.39427 16.4023L4.1712 20.6254L5.70402 22.1582L10.2976 17.5646Z" fill="#98A2B3" fill-opacity="0.6"/>
<path d="M8.35947 16.365C7.85276 15.8225 7.48366 15.1498 7.30797 14.4025L1.474 15.9657L2.03504 18.0596L8.35947 16.365Z" fill="#98A2B3" fill-opacity="0.6"/>
</g>
<g opacity="0.8">
<path d="M38.0527 6.27612V15.9334L31.8621 6.27612H29.3859V19.6096H31.8621V10.0286L38.0527 19.6096H40.5289V6.27612H38.0527Z" fill="#98A2B3" fill-opacity="0.6"/>
<path d="M41.6447 8.77139H44.1971V6.27612H41.6447V8.77139ZM41.6828 19.6096V10.0857H44.159V19.6096H41.6828Z" fill="#98A2B3" fill-opacity="0.6"/>
<path d="M54.8131 14.8477C54.8131 11.5524 52.4703 9.99046 49.994 9.97141C47.4988 9.95236 45.194 11.5524 45.194 14.8477C45.194 18.1429 47.4988 19.743 49.994 19.7239C52.2607 19.7049 53.8227 18.6572 54.5465 16.9239L52.6226 16.1239C52.0322 17.3048 51.0988 17.7239 49.994 17.7429C49.0416 17.762 47.9559 17.3048 47.7273 15.6096H54.756C54.7941 15.3619 54.8131 15.1143 54.8131 14.8477ZM49.994 11.9333C50.9464 11.9524 51.9179 12.4667 52.2226 13.8381H47.7654C48.0892 12.4476 49.0607 11.9143 49.994 11.9333Z" fill="#98A2B3" fill-opacity="0.6"/>
<path d="M60.5358 11.8571V9.97141H58.9739V7.41899L56.4977 8.18091V9.97141H54.9358V11.8571H56.4977V16.7905C56.4977 18.6572 56.6501 19.6096 59.5453 19.6096H60.212V17.4382H59.5453C59.0882 17.4382 58.9739 17.362 58.9739 16.7905V11.8571H60.5358Z" fill="#98A2B3" fill-opacity="0.6"/>
<path d="M64.2153 17.5334L69.4725 12.1619V10.0857H61.5867V12.1619H66.6916L61.4344 17.5334V19.6096H69.5297V17.5334H64.2153Z" fill="#98A2B3" fill-opacity="0.6"/>
<path d="M70.4175 16.9239L72.9128 16.5429C73.0842 17.4953 74.208 17.8572 74.8937 17.8572C75.5985 17.8572 76.8176 17.7048 76.8176 16.562C76.8176 14.3334 70.7032 17.1144 70.7032 12.8476C70.7032 10.1047 73.8842 9.95236 74.8937 9.95236C75.8461 9.95236 78.6081 10.1047 79.1795 12.3143L76.8176 12.8095C76.608 11.8 75.5414 11.6095 74.9699 11.6095C74.3985 11.6095 73.1794 11.7429 73.1794 12.8476C73.1794 15.0572 79.2938 12.2381 79.2938 16.562C79.2938 19.4763 75.9414 19.7239 74.8937 19.7239C73.9413 19.7239 70.9127 19.4763 70.4175 16.9239Z" fill="#98A2B3" fill-opacity="0.6"/>
<path d="M82.5106 14.8477C82.5106 17.1715 83.7488 17.8763 85.044 17.8572C86.2059 17.8382 87.0059 17.362 87.4821 16.0286L89.5203 17.0191C88.7774 18.962 86.9679 19.7049 85.044 19.7239C82.5488 19.743 80.0344 18.1429 80.0344 14.8477C80.0344 11.5524 82.5488 9.95236 85.044 9.97141C86.9679 9.99046 88.7774 10.7333 89.5203 12.6762L87.4821 13.6667C87.0059 12.3333 86.2059 11.8571 85.044 11.8381C83.7488 11.819 82.5106 12.5238 82.5106 14.8477Z" fill="#98A2B3" fill-opacity="0.6"/>
<path d="M96.1678 9.93331C94.8916 9.93331 93.7297 10.6 92.9868 12.0286V6.27612H90.5106V19.6096H92.9868V16.2382C92.9868 11.8762 94.7964 11.5143 95.463 11.5143C96.5297 11.5143 96.6821 12.6191 96.6821 14.2381V19.6096H99.1583V14.2381C99.1583 12.2191 98.8345 9.93331 96.1678 9.93331Z" fill="#98A2B3" fill-opacity="0.6"/>
<path d="M109.613 14.8477C109.613 11.5524 107.27 9.99046 104.794 9.97141C102.299 9.95236 99.9938 11.5524 99.9938 14.8477C99.9938 18.1429 102.299 19.743 104.794 19.7239C107.061 19.7049 108.622 18.6572 109.346 16.9239L107.422 16.1239C106.832 17.3048 105.899 17.7239 104.794 17.7429C103.841 17.762 102.756 17.3048 102.527 15.6096H109.556C109.594 15.3619 109.613 15.1143 109.613 14.8477ZM104.794 11.9333C105.746 11.9524 106.718 12.4667 107.022 13.8381H102.565C102.889 12.4476 103.86 11.9143 104.794 11.9333Z" fill="#98A2B3" fill-opacity="0.6"/>
</g>
<defs>
<clipPath id="clip0_1_2688">
<rect width="21.8274" height="21.8274" fill="white" transform="translate(0.737366 2.08643)"/>
</clipPath>
</defs>
</svg>
