<svg width="121" height="26" viewBox="0 0 121 26" fill="none" xmlns="http://www.w3.org/2000/svg">
<path d="M18.8623 6.63217C18.6479 6.41776 18.4335 6.20334 18.2191 5.98893C17.5758 5.3028 16.8897 4.61667 16.032 4.18784C15.0457 3.67325 13.9736 3.80189 12.9016 3.80189C11.272 3.80189 7.19812 3.80189 4.79668 3.80189L6.42623 5.98893C9.38516 5.98893 14.0165 5.98893 16.1607 5.98893C17.0612 5.98893 17.8331 6.16046 18.5621 6.63217C18.6908 6.67505 18.8194 6.67505 18.8623 6.63217Z" fill="#98A2B3" fill-opacity="0.6"/>
<path d="M20.6634 10.1485C20.4489 9.93411 20.2345 9.71969 20.0201 9.50528C19.3769 8.81915 18.6907 8.13302 17.8331 7.70419C16.8468 7.1896 15.7747 7.31825 14.7026 7.31825C13.2875 7.31825 9.89972 7.31825 7.49828 7.31825L9.12783 9.50528C12.0439 9.50528 16.032 9.50528 18.0046 9.50528C18.9052 9.50528 19.677 9.67681 20.4061 10.1485C20.4918 10.1914 20.5776 10.1914 20.6634 10.1485Z" fill="#98A2B3" fill-opacity="0.6"/>
<path d="M22.6788 13.579C22.4644 13.3645 22.25 13.1501 22.0356 12.9357C21.3924 12.2496 20.7062 11.5634 19.8486 11.1346C18.8623 10.62 17.7902 10.7487 16.7181 10.7487C15.3887 10.7487 12.4727 10.7487 10.1141 10.7487L11.7437 12.9357C14.574 12.9357 18.1761 12.9357 19.9772 12.9357C20.8778 12.9357 21.6497 13.1072 22.3787 13.579C22.5073 13.6218 22.5931 13.6647 22.6788 13.579Z" fill="#98A2B3" fill-opacity="0.6"/>
<path d="M4.62511 19.3683C4.83952 19.5828 5.05394 19.7972 5.26835 20.0116C5.9116 20.6977 6.59772 21.3838 7.45538 21.8127C8.44169 22.3273 9.51377 22.1986 10.5858 22.1986H18.6907L17.0612 20.0116C14.1022 20.0116 9.47089 20.0116 7.32674 20.0116C6.42619 20.0116 5.6543 19.8401 4.92529 19.3683C4.79664 19.3255 4.71087 19.3255 4.62511 19.3683Z" fill="#98A2B3" fill-opacity="0.6"/>
<path d="M2.82404 15.852C3.03845 16.0664 3.25287 16.2808 3.46728 16.4952C4.11053 17.1814 4.79665 17.8675 5.65431 18.2963C6.64062 18.8109 7.71269 18.6823 8.78477 18.6823H15.9891L14.3596 16.4952C11.4435 16.4952 7.4554 16.4952 5.48278 16.4952C4.58224 16.4952 3.81034 16.3237 3.08133 15.852C2.99556 15.8091 2.9098 15.8091 2.82404 15.852Z" fill="#98A2B3" fill-opacity="0.6"/>
<path d="M0.851395 12.3784C1.06581 12.5928 1.28022 12.8072 1.49464 13.0216C2.13788 13.7077 2.82402 14.3939 3.68167 14.8227C4.66798 15.3373 5.74005 15.2086 6.81213 15.2086H13.4161L11.7866 13.0216C8.95628 13.0216 5.35411 13.0216 3.55302 13.0216C2.65248 13.0216 1.88059 12.8501 1.15157 12.3784C1.02293 12.3355 0.937161 12.3355 0.851395 12.3784Z" fill="#98A2B3" fill-opacity="0.6"/>
<g opacity="0.8">
<path d="M29.4999 6.53784V19.2313H32.291V13.9868H37.6067V11.8179H32.291V8.88454H38.4244V6.53784H29.4999Z" fill="#98A2B3" fill-opacity="0.6"/>
<path d="M45.425 13.649H41.3182C41.3301 13.4713 41.3656 13.2698 41.4249 13.0446C41.496 12.8194 41.6086 12.6061 41.7627 12.4046C41.9286 12.2031 42.1419 12.0372 42.4027 11.9068C42.6753 11.7646 43.0131 11.6935 43.416 11.6935C44.0323 11.6935 44.4886 11.8594 44.7849 12.1912C45.0931 12.5231 45.3064 13.009 45.425 13.649ZM41.3182 15.2491H47.9494C47.9968 14.5379 47.9376 13.8565 47.7716 13.2046C47.6057 12.5527 47.3331 11.972 46.9539 11.4623C46.5864 10.9527 46.1124 10.5497 45.5316 10.2534C44.9509 9.94529 44.2694 9.79122 43.4871 9.79122C42.7879 9.79122 42.1479 9.91566 41.5671 10.1646C40.9982 10.4134 40.5064 10.7572 40.0916 11.1957C39.6767 11.6223 39.3567 12.132 39.1315 12.7246C38.9064 13.3172 38.7938 13.9572 38.7938 14.6446C38.7938 15.3557 38.9004 16.0076 39.1138 16.6002C39.3389 17.1928 39.653 17.7024 40.056 18.1291C40.459 18.5558 40.9508 18.8876 41.5316 19.1247C42.1123 19.3499 42.7642 19.4624 43.4871 19.4624C44.5301 19.4624 45.419 19.2254 46.1538 18.7513C46.8887 18.2772 47.4339 17.4891 47.7894 16.3869H45.5672C45.4842 16.6713 45.259 16.9439 44.8916 17.2046C44.5242 17.4535 44.0857 17.578 43.576 17.578C42.8649 17.578 42.3197 17.3943 41.9405 17.0269C41.5612 16.6594 41.3538 16.0668 41.3182 15.2491Z" fill="#98A2B3" fill-opacity="0.6"/>
<path d="M48.8067 12.8668C48.8422 12.2742 48.9904 11.7824 49.2511 11.3912C49.5119 11.0001 49.8437 10.686 50.2467 10.449C50.6496 10.212 51.1 10.046 51.5978 9.95122C52.1074 9.84455 52.6171 9.79122 53.1267 9.79122C53.5889 9.79122 54.0571 9.82677 54.5312 9.89788C55.0053 9.95714 55.4379 10.0816 55.829 10.2712C56.2201 10.4609 56.5401 10.7275 56.789 11.0712C57.0379 11.4031 57.1623 11.8475 57.1623 12.4046V17.1869C57.1623 17.6017 57.186 17.9987 57.2334 18.378C57.2808 18.7573 57.3638 19.0417 57.4823 19.2313H54.9223C54.8749 19.0891 54.8334 18.9469 54.7978 18.8047C54.7741 18.6506 54.7564 18.4965 54.7445 18.3424C54.3415 18.7573 53.8675 19.0476 53.3223 19.2136C52.7771 19.3795 52.22 19.4624 51.6511 19.4624C51.2126 19.4624 50.8037 19.4091 50.4245 19.3024C50.0452 19.1958 49.7133 19.0298 49.4289 18.8047C49.1444 18.5795 48.9193 18.295 48.7533 17.9513C48.5992 17.6076 48.5222 17.1987 48.5222 16.7246C48.5222 16.2031 48.6111 15.7765 48.7889 15.4446C48.9785 15.1009 49.2156 14.8283 49.5 14.6268C49.7963 14.4253 50.1282 14.2772 50.4956 14.1824C50.8748 14.0757 51.2541 13.9927 51.6334 13.9335C52.0126 13.8742 52.386 13.8268 52.7534 13.7913C53.1208 13.7557 53.4467 13.7024 53.7312 13.6313C54.0156 13.5602 54.2408 13.4594 54.4067 13.329C54.5727 13.1868 54.6497 12.9853 54.6378 12.7246C54.6378 12.452 54.5904 12.2387 54.4956 12.0846C54.4127 11.9186 54.2941 11.7942 54.1401 11.7112C53.9978 11.6164 53.826 11.5572 53.6245 11.5335C53.4349 11.4979 53.2275 11.4801 53.0023 11.4801C52.5045 11.4801 52.1134 11.5868 51.8289 11.8001C51.5445 12.0135 51.3785 12.369 51.3311 12.8668H48.8067ZM54.6378 14.7335C54.5312 14.8283 54.3949 14.9054 54.2289 14.9646C54.0749 15.012 53.903 15.0535 53.7134 15.0891C53.5356 15.1246 53.346 15.1542 53.1445 15.1779C52.943 15.2017 52.7415 15.2313 52.54 15.2668C52.3504 15.3024 52.1608 15.3498 51.9711 15.4091C51.7934 15.4683 51.6334 15.5513 51.4911 15.658C51.3608 15.7528 51.2541 15.8772 51.1711 16.0313C51.0882 16.1854 51.0467 16.3809 51.0467 16.618C51.0467 16.8432 51.0882 17.0328 51.1711 17.1869C51.2541 17.3409 51.3667 17.4654 51.5089 17.5602C51.6511 17.6432 51.8171 17.7024 52.0067 17.738C52.1963 17.7735 52.3919 17.7913 52.5934 17.7913C53.0912 17.7913 53.4763 17.7084 53.7489 17.5424C54.0215 17.3765 54.223 17.1809 54.3534 16.9557C54.4838 16.7187 54.5608 16.4817 54.5845 16.2446C54.6201 16.0076 54.6378 15.818 54.6378 15.6757V14.7335Z" fill="#98A2B3" fill-opacity="0.6"/>
<path d="M61.7885 10.0401V7.28452H59.264V10.0401H57.7351V11.729H59.264V17.1513C59.264 17.6135 59.341 17.9869 59.4951 18.2713C59.6492 18.5558 59.8566 18.775 60.1174 18.9291C60.3899 19.0832 60.6981 19.1839 61.0418 19.2313C61.3974 19.2906 61.7707 19.3202 62.1618 19.3202C62.4107 19.3202 62.6655 19.3143 62.9263 19.3024C63.187 19.2906 63.4241 19.2669 63.6374 19.2313V17.2758C63.5189 17.2995 63.3944 17.3172 63.2641 17.3291C63.1337 17.3409 62.9974 17.3469 62.8552 17.3469C62.4285 17.3469 62.144 17.2758 62.0018 17.1335C61.8596 16.9913 61.7885 16.7069 61.7885 16.2802V11.729H63.6374V10.0401H61.7885Z" fill="#98A2B3" fill-opacity="0.6"/>
<path d="M64.3052 6.53784V19.2313H66.8297V14.4135C66.8297 13.4772 66.9837 12.8075 67.2919 12.4046C67.6 11.9898 68.0978 11.7824 68.7852 11.7824C69.3897 11.7824 69.8104 11.972 70.0475 12.3512C70.2845 12.7187 70.403 13.2816 70.403 14.0402V19.2313H72.9275V13.5779C72.9275 13.009 72.8742 12.4935 72.7675 12.0312C72.6727 11.5572 72.5008 11.1601 72.2519 10.8401C72.0031 10.5083 71.6593 10.2534 71.2208 10.0757C70.7942 9.88603 70.243 9.79122 69.5675 9.79122C69.0934 9.79122 68.6075 9.91566 68.1097 10.1646C67.6119 10.4016 67.203 10.7868 66.883 11.3201H66.8297V6.53784H64.3052Z" fill="#98A2B3" fill-opacity="0.6"/>
<path d="M80.4969 13.649H76.3902C76.4021 13.4713 76.4376 13.2698 76.4969 13.0446C76.568 12.8194 76.6806 12.6061 76.8346 12.4046C77.0006 12.2031 77.2139 12.0372 77.4747 11.9068C77.7472 11.7646 78.085 11.6935 78.488 11.6935C79.1043 11.6935 79.5606 11.8594 79.8569 12.1912C80.1651 12.5231 80.3784 13.009 80.4969 13.649ZM76.3902 15.2491H83.0214C83.0688 14.5379 83.0095 13.8565 82.8436 13.2046C82.6777 12.5527 82.4051 11.972 82.0258 11.4623C81.6584 10.9527 81.1843 10.5497 80.6036 10.2534C80.0228 9.94529 79.3413 9.79122 78.5591 9.79122C77.8598 9.79122 77.2198 9.91566 76.6391 10.1646C76.0702 10.4134 75.5783 10.7572 75.1635 11.1957C74.7487 11.6223 74.4287 12.132 74.2035 12.7246C73.9783 13.3172 73.8657 13.9572 73.8657 14.6446C73.8657 15.3557 73.9724 16.0076 74.1857 16.6002C74.4109 17.1928 74.725 17.7024 75.128 18.1291C75.5309 18.5558 76.0228 18.8876 76.6035 19.1247C77.1843 19.3499 77.8361 19.4624 78.5591 19.4624C79.6021 19.4624 80.491 19.2254 81.2258 18.7513C81.9606 18.2772 82.5058 17.4891 82.8614 16.3869H80.6391C80.5562 16.6713 80.331 16.9439 79.9636 17.2046C79.5962 17.4535 79.1576 17.578 78.648 17.578C77.9369 17.578 77.3917 17.3943 77.0124 17.0269C76.6332 16.6594 76.4258 16.0668 76.3902 15.2491Z" fill="#98A2B3" fill-opacity="0.6"/>
<path d="M83.9853 10.0401V19.2313H86.5098V15.0891C86.5098 14.6742 86.5512 14.289 86.6342 13.9335C86.7172 13.5779 86.8535 13.2698 87.0431 13.009C87.2446 12.7364 87.5053 12.5231 87.8253 12.369C88.1453 12.2149 88.5365 12.1379 88.9987 12.1379C89.1528 12.1379 89.3128 12.1498 89.4787 12.1735C89.6446 12.1853 89.7868 12.2031 89.9054 12.2268V9.88011C89.7039 9.82085 89.5202 9.79122 89.3542 9.79122C89.0342 9.79122 88.7261 9.83862 88.4298 9.93344C88.1335 10.0283 87.855 10.1646 87.5942 10.3423C87.3335 10.5083 87.1024 10.7157 86.9009 10.9646C86.6994 11.2016 86.5394 11.4623 86.4209 11.7468H86.3853V10.0401H83.9853Z" fill="#98A2B3" fill-opacity="0.6"/>
<path d="M93.4196 16.8846V8.88454H95.4107C96.0981 8.88454 96.6729 8.98528 97.1352 9.18676C97.6093 9.3764 97.9885 9.65492 98.273 10.0223C98.5574 10.3897 98.7589 10.8342 98.8774 11.3557C99.0078 11.8653 99.073 12.4401 99.073 13.0801C99.073 13.7794 98.9841 14.372 98.8063 14.8579C98.6285 15.3439 98.3915 15.7409 98.0952 16.0491C97.7989 16.3454 97.4611 16.5587 97.0818 16.6891C96.7026 16.8195 96.3115 16.8846 95.9085 16.8846H93.4196ZM90.6284 6.53784V19.2313H96.104C97.0759 19.2313 97.9174 19.0713 98.6285 18.7513C99.3515 18.4195 99.95 17.9691 100.424 17.4002C100.91 16.8313 101.272 16.1557 101.509 15.3735C101.746 14.5913 101.864 13.7379 101.864 12.8135C101.864 11.7586 101.716 10.8401 101.42 10.0579C101.135 9.27565 100.732 8.62379 100.211 8.10231C99.7011 7.58082 99.0908 7.1897 98.3796 6.92896C97.6804 6.66821 96.9218 6.53784 96.104 6.53784H90.6284Z" fill="#98A2B3" fill-opacity="0.6"/>
<path d="M109.192 13.649H105.086C105.098 13.4713 105.133 13.2698 105.192 13.0446C105.263 12.8194 105.376 12.6061 105.53 12.4046C105.696 12.2031 105.909 12.0372 106.17 11.9068C106.443 11.7646 106.781 11.6935 107.183 11.6935C107.8 11.6935 108.256 11.8594 108.552 12.1912C108.861 12.5231 109.074 13.009 109.192 13.649ZM105.086 15.2491H111.717C111.764 14.5379 111.705 13.8565 111.539 13.2046C111.373 12.5527 111.101 11.972 110.721 11.4623C110.354 10.9527 109.88 10.5497 109.299 10.2534C108.718 9.94529 108.037 9.79122 107.255 9.79122C106.555 9.79122 105.915 9.91566 105.335 10.1646C104.766 10.4134 104.274 10.7572 103.859 11.1957C103.444 11.6223 103.124 12.132 102.899 12.7246C102.674 13.3172 102.561 13.9572 102.561 14.6446C102.561 15.3557 102.668 16.0076 102.881 16.6002C103.106 17.1928 103.42 17.7024 103.823 18.1291C104.226 18.5558 104.718 18.8876 105.299 19.1247C105.88 19.3499 106.532 19.4624 107.255 19.4624C108.298 19.4624 109.186 19.2254 109.921 18.7513C110.656 18.2772 111.201 17.4891 111.557 16.3869H109.335C109.252 16.6713 109.026 16.9439 108.659 17.2046C108.292 17.4535 107.853 17.578 107.343 17.578C106.632 17.578 106.087 17.3943 105.708 17.0269C105.329 16.6594 105.121 16.0668 105.086 15.2491Z" fill="#98A2B3" fill-opacity="0.6"/>
<path d="M117.765 19.2313L120.876 10.0401H118.37L116.432 16.3157H116.396L114.459 10.0401H111.81L114.956 19.2313H117.765Z" fill="#98A2B3" fill-opacity="0.6"/>
</g>
</svg>
