<svg width="100" height="26" viewBox="0 0 100 26" fill="none" xmlns="http://www.w3.org/2000/svg">
<circle cx="11.7902" cy="13.1242" r="9.96133" stroke="#98A2B3" stroke-opacity="0.6" stroke-width="1.90479"/>
<path d="M15.6769 17.0109C13.6451 19.0427 11.3505 20.3613 9.32062 20.8832C7.26684 21.4113 5.67108 21.0926 4.74644 20.168C3.8218 19.2433 3.50306 17.6476 4.03118 15.5938C4.55314 13.5639 5.87171 11.2693 7.90346 9.23753C9.93521 7.20578 12.2299 5.88721 14.2597 5.36525C16.3135 4.83713 17.9092 5.15587 18.8339 6.08051C19.7585 7.00515 20.0773 8.60091 19.5491 10.6547C19.0272 12.6845 17.7086 14.9792 15.6769 17.0109Z" stroke="#98A2B3" stroke-opacity="0.6" stroke-width="1.90479"/>
<path d="M15.6767 9.23736C17.7085 11.2691 19.0271 13.5638 19.549 15.5936C20.0771 17.6474 19.7584 19.2431 18.8338 20.1678C17.9091 21.0924 16.3134 21.4112 14.2596 20.883C12.2297 20.3611 9.9351 19.0425 7.90334 17.0108C5.87159 14.979 4.55302 12.6844 4.03106 10.6545C3.50294 8.60074 3.82168 7.00498 4.74632 6.08034C5.67096 5.1557 7.26672 4.83696 9.32051 5.36508C11.3503 5.88704 13.645 7.20561 15.6767 9.23736Z" stroke="#98A2B3" stroke-opacity="0.6" stroke-width="1.90479"/>
<g opacity="0.8">
<path d="M34.6869 18.0954C37.6775 18.0954 39.6965 16.5334 39.6965 14.0382C39.6965 8.76192 32.6869 11.0096 32.6869 8.22858C32.6869 7.44762 33.3917 6.91428 34.5155 6.91428C35.7917 6.91428 36.5917 7.6 36.687 8.64763H39.4108C39.3346 6.11427 37.3917 4.45711 34.5155 4.45711C31.8107 4.45711 29.9059 6.01903 29.9059 8.22858C29.9059 13.4667 36.8203 11.4667 36.8203 14.0763C36.8203 15.0858 35.9632 15.6191 34.6869 15.6191C33.2774 15.6191 32.3822 14.762 32.2679 13.4096H29.525C29.6393 16.2477 31.6583 18.0954 34.6869 18.0954Z" fill="#98A2B3" fill-opacity="0.6"/>
<path d="M40.3443 21.8287H42.992V17.0858C43.5063 17.7335 44.4396 18.0954 45.5253 18.0954C48.2873 18.0954 50.154 16.1334 50.154 13.1429C50.154 10.1524 48.4396 8.19048 45.7539 8.19048C44.5158 8.19048 43.5634 8.64763 42.992 9.3905V8.34287H40.3443V21.8287ZM45.2015 15.8096C43.7729 15.8096 42.8396 14.7429 42.8396 13.1429C42.8396 11.5239 43.7729 10.4572 45.2015 10.4572C46.592 10.4572 47.5444 11.5239 47.5444 13.1429C47.5444 14.7429 46.592 15.8096 45.2015 15.8096Z" fill="#98A2B3" fill-opacity="0.6"/>
<path d="M50.7946 17.943H53.4422V12.6858C53.4422 11.4477 54.2613 10.5524 55.4232 10.5524C56.528 10.5524 57.2899 11.3905 57.2899 12.5524V17.943H59.9376V11.962C59.9376 9.75241 58.528 8.19048 56.3756 8.19048C55.0423 8.19048 53.9946 8.74287 53.4422 9.67622V4.17139H50.7946V17.943Z" fill="#98A2B3" fill-opacity="0.6"/>
<path d="M67.3442 14.6858C67.1347 15.5049 66.4299 15.9239 65.3632 15.9239C64.0299 15.9239 63.1727 15.0858 62.9822 13.7334H69.8776C69.8966 13.5239 69.9157 13.2382 69.9157 12.8763C69.9157 10.6858 68.5633 8.19048 65.1727 8.19048C61.9156 8.19048 60.4298 10.6858 60.4298 13.1239C60.4298 15.543 62.106 18.0954 65.3632 18.0954C67.7252 18.0954 69.5537 16.762 69.9347 14.6858H67.3442ZM65.1727 10.1334C66.4489 10.1334 67.1918 10.9905 67.268 12.0572H63.0203C63.2489 10.7238 63.9727 10.1334 65.1727 10.1334Z" fill="#98A2B3" fill-opacity="0.6"/>
<path d="M76.8595 10.5524V8.34287H75.4934C74.3315 8.34287 73.6077 8.74287 73.0934 9.94289V8.34287H70.4267V17.943H73.0934V13.2763C73.0934 11.6381 73.6839 10.5524 74.9982 10.5524H76.8595Z" fill="#98A2B3" fill-opacity="0.6"/>
<path d="M86.0025 8.34287H83.3358V13.6001C83.3358 14.8191 82.5167 15.7334 81.3548 15.7334C80.2691 15.7334 79.5071 14.8953 79.5071 13.7334V8.34287H76.8595V14.3239C76.8595 16.5144 78.269 18.0954 80.4214 18.0954C81.7357 18.0954 82.8024 17.5239 83.3358 16.6096V17.943H86.0025V8.34287Z" fill="#98A2B3" fill-opacity="0.6"/>
<path d="M87.1455 17.943H89.7931V4.17139H87.1455V17.943Z" fill="#98A2B3" fill-opacity="0.6"/>
<path d="M97.352 14.6858C97.1425 15.5049 96.4377 15.9239 95.371 15.9239C94.0377 15.9239 93.1805 15.0858 92.99 13.7334H99.8854C99.9044 13.5239 99.9235 13.2382 99.9235 12.8763C99.9235 10.6858 98.5711 8.19048 95.1805 8.19048C91.9234 8.19048 90.4376 10.6858 90.4376 13.1239C90.4376 15.543 92.1138 18.0954 95.371 18.0954C97.733 18.0954 99.5616 16.762 99.9425 14.6858H97.352ZM95.1805 10.1334C96.4568 10.1334 97.1996 10.9905 97.2758 12.0572H93.0281C93.2567 10.7238 93.9805 10.1334 95.1805 10.1334Z" fill="#98A2B3" fill-opacity="0.6"/>
</g>
</svg>
