<svg width="101" height="26" viewBox="0 0 101 26" fill="none" xmlns="http://www.w3.org/2000/svg">
<path fill-rule="evenodd" clip-rule="evenodd" d="M10.9137 23.9139C16.9412 23.9139 21.8274 19.0276 21.8274 13.0001C21.8274 6.97267 16.9412 2.08643 10.9137 2.08643C4.88623 2.08643 0 6.97267 0 13.0001C0 19.0276 4.88623 23.9139 10.9137 23.9139ZM14.3184 7.1705C14.4841 6.58182 13.9129 6.23371 13.3911 6.60542L6.10793 11.794C5.5421 12.1971 5.6311 13.0001 6.24162 13.0001H8.15948V12.9853H11.8973L8.85169 14.0599L7.50903 18.8298C7.3433 19.4185 7.91453 19.7666 8.43631 19.3949L15.7195 14.2064C16.2853 13.8033 16.1963 13.0001 15.5858 13.0001H12.6774L14.3184 7.1705Z" fill="#98A2B3" fill-opacity="0.6"/>
<g opacity="0.8">
<path d="M28.6485 19.6668V17.4573H30.4009V8.54287H28.6485V6.33332H35.5058C36.3185 6.33332 37.0232 6.473 37.6201 6.75237C38.2296 7.01904 38.6994 7.40635 39.0296 7.91429C39.3725 8.40954 39.5439 9.00637 39.5439 9.70479V9.89527C39.5439 10.5048 39.4296 11.0064 39.201 11.4001C38.9725 11.781 38.6994 12.0794 38.382 12.2953C38.0772 12.4985 37.7852 12.6445 37.5058 12.7334V13.0763C37.7852 13.1525 38.0899 13.2985 38.4201 13.5144C38.7502 13.7175 39.0296 14.016 39.2582 14.4096C39.4995 14.8033 39.6201 15.3176 39.6201 15.9525V16.143C39.6201 16.8795 39.4487 17.5144 39.1058 18.0478C38.7629 18.5684 38.2867 18.9684 37.6772 19.2478C37.0804 19.5271 36.382 19.6668 35.5819 19.6668H28.6485ZM32.9152 17.3811H35.2772C35.8232 17.3811 36.2613 17.2477 36.5915 16.9811C36.9343 16.7144 37.1058 16.3334 37.1058 15.8382V15.6477C37.1058 15.1525 36.9407 14.7715 36.6105 14.5049C36.2804 14.2382 35.8359 14.1048 35.2772 14.1048H32.9152V17.3811ZM32.9152 11.8191H35.2391C35.7597 11.8191 36.1851 11.6858 36.5153 11.4191C36.8582 11.1524 37.0296 10.7842 37.0296 10.3143V10.1238C37.0296 9.6413 36.8645 9.27304 36.5343 9.01907C36.2042 8.7524 35.7724 8.61906 35.2391 8.61906H32.9152V11.8191Z" fill="#98A2B3" fill-opacity="0.6"/>
<path d="M45.2975 19.9335C44.3578 19.9335 43.5134 19.743 42.7642 19.3621C42.015 18.9811 41.4245 18.4287 40.9927 17.7049C40.561 16.9811 40.3451 16.1112 40.3451 15.0953V14.7906C40.3451 13.7747 40.561 12.9048 40.9927 12.181C41.4245 11.4572 42.015 10.9048 42.7642 10.5238C43.5134 10.1429 44.3578 9.95241 45.2975 9.95241C46.2372 9.95241 47.0817 10.1429 47.8309 10.5238C48.5801 10.9048 49.1706 11.4572 49.6024 12.181C50.0341 12.9048 50.25 13.7747 50.25 14.7906V15.0953C50.25 16.1112 50.0341 16.9811 49.6024 17.7049C49.1706 18.4287 48.5801 18.9811 47.8309 19.3621C47.0817 19.743 46.2372 19.9335 45.2975 19.9335ZM45.2975 17.8001C46.0341 17.8001 46.6436 17.5652 47.1261 17.0954C47.6087 16.6128 47.85 15.9271 47.85 15.0382V14.8477C47.85 13.9588 47.6087 13.2794 47.1261 12.8096C46.6563 12.327 46.0468 12.0858 45.2975 12.0858C44.561 12.0858 43.9515 12.327 43.469 12.8096C42.9864 13.2794 42.7451 13.9588 42.7451 14.8477V15.0382C42.7451 15.9271 42.9864 16.6128 43.469 17.0954C43.9515 17.5652 44.561 17.8001 45.2975 17.8001Z" fill="#98A2B3" fill-opacity="0.6"/>
<path d="M51.5129 19.6668V6.33332H53.913V19.6668H51.5129Z" fill="#98A2B3" fill-opacity="0.6"/>
<path d="M59.2392 19.6668C58.617 19.6668 58.1091 19.4763 57.7154 19.0954C57.3344 18.7017 57.144 18.1811 57.144 17.5335V12.2001H54.782V10.2191H57.144V7.28571H59.544V10.2191H62.1345V12.2001H59.544V17.1144C59.544 17.4954 59.7218 17.6858 60.0773 17.6858H61.9059V19.6668H59.2392Z" fill="#98A2B3" fill-opacity="0.6"/>
<path d="M67.2785 19.9335C66.0467 19.9335 65.0372 19.6668 64.2499 19.1335C63.4625 18.6001 62.9864 17.8382 62.8213 16.8477L65.0308 16.2763C65.1197 16.7208 65.2657 17.07 65.4689 17.3239C65.6848 17.5779 65.9451 17.762 66.2499 17.8763C66.5673 17.9779 66.9102 18.0287 67.2785 18.0287C67.8372 18.0287 68.2499 17.9335 68.5166 17.743C68.7833 17.5398 68.9166 17.2922 68.9166 17.0001C68.9166 16.7081 68.7896 16.4858 68.5356 16.3334C68.2817 16.1684 67.8753 16.035 67.3166 15.9334L66.7832 15.8382C66.1229 15.7112 65.5197 15.5398 64.9737 15.3239C64.4276 15.0953 63.9895 14.7842 63.6594 14.3906C63.3292 13.9969 63.1641 13.489 63.1641 12.8667C63.1641 11.927 63.507 11.2096 64.1927 10.7143C64.8784 10.2064 65.78 9.95241 66.8975 9.95241C67.9515 9.95241 68.8277 10.1873 69.5261 10.6572C70.2245 11.127 70.6817 11.7429 70.8976 12.5048L68.669 13.1905C68.5674 12.708 68.3578 12.3651 68.0404 12.162C67.7356 11.9588 67.3547 11.8572 66.8975 11.8572C66.4404 11.8572 66.0912 11.9397 65.8499 12.1048C65.6086 12.2572 65.488 12.4731 65.488 12.7524C65.488 13.0572 65.615 13.2858 65.8689 13.4382C66.1229 13.5779 66.4658 13.6858 66.8975 13.762L67.4309 13.8572C68.142 13.9842 68.7833 14.1556 69.3547 14.3715C69.9388 14.5747 70.396 14.8731 70.7261 15.2668C71.069 15.6477 71.2404 16.1684 71.2404 16.8287C71.2404 17.8192 70.8785 18.5874 70.1547 19.1335C69.4436 19.6668 68.4848 19.9335 67.2785 19.9335Z" fill="#98A2B3" fill-opacity="0.6"/>
<path d="M72.3912 19.6668V6.33332H74.7912V11.381H75.1341C75.2357 11.1778 75.3944 10.9746 75.6103 10.7715C75.8261 10.5683 76.1119 10.4032 76.4674 10.2762C76.8357 10.1365 77.2992 10.0667 77.8579 10.0667C78.5944 10.0667 79.2357 10.2381 79.7817 10.581C80.3405 10.9112 80.7722 11.3747 81.077 11.9715C81.3818 12.5556 81.5342 13.2413 81.5342 14.0287V19.6668H79.1341V14.2191C79.1341 13.508 78.9563 12.9747 78.6008 12.6191C78.2579 12.2636 77.7627 12.0858 77.1151 12.0858C76.3785 12.0858 75.8071 12.3334 75.4007 12.8286C74.9944 13.3112 74.7912 13.9906 74.7912 14.8668V19.6668H72.3912Z" fill="#98A2B3" fill-opacity="0.6"/>
<path d="M83.1763 19.6668V10.2191H85.5763V19.6668H83.1763ZM84.3763 9.11431C83.9445 9.11431 83.5763 8.97462 83.2715 8.69525C82.9795 8.41589 82.8334 8.04763 82.8334 7.59048C82.8334 7.13333 82.9795 6.76507 83.2715 6.4857C83.5763 6.20633 83.9445 6.06665 84.3763 6.06665C84.8207 6.06665 85.189 6.20633 85.4811 6.4857C85.7731 6.76507 85.9192 7.13333 85.9192 7.59048C85.9192 8.04763 85.7731 8.41589 85.4811 8.69525C85.189 8.97462 84.8207 9.11431 84.3763 9.11431Z" fill="#98A2B3" fill-opacity="0.6"/>
<path d="M88.8454 19.6668V12.2001H86.4454V10.2191H88.8454V8.46668C88.8454 7.81905 89.0359 7.30476 89.4168 6.9238C89.8105 6.53015 90.3184 6.33332 90.9407 6.33332H93.4169V8.3143H91.7788C91.4232 8.3143 91.2454 8.50478 91.2454 8.88573V10.2191H93.7217V12.2001H91.2454V19.6668H88.8454Z" fill="#98A2B3" fill-opacity="0.6"/>
<path d="M98.0604 19.6668C97.4382 19.6668 96.9302 19.4763 96.5366 19.0954C96.1556 18.7017 95.9651 18.1811 95.9651 17.5335V12.2001H93.6032V10.2191H95.9651V7.28571H98.3652V10.2191H100.956V12.2001H98.3652V17.1144C98.3652 17.4954 98.5429 17.6858 98.8985 17.6858H100.727V19.6668H98.0604Z" fill="#98A2B3" fill-opacity="0.6"/>
</g>
</svg>
