<svg width="103" height="32" viewBox="0 0 103 32" fill="none" xmlns="http://www.w3.org/2000/svg">
<path fill-rule="evenodd" clip-rule="evenodd" d="M10.8899 2.94077C10.6361 2.88856 10.3743 2.88856 10.1204 2.94077C9.82701 3.00111 9.56475 3.148 9.35625 3.26479L9.29942 3.29653L2.23304 7.2223C2.21351 7.23315 2.19338 7.24424 2.17275 7.2556C1.95204 7.37717 1.67453 7.53002 1.46141 7.76128C1.27716 7.96122 1.13772 8.1982 1.05243 8.45636C0.953768 8.75496 0.954923 9.07178 0.95584 9.32376C0.955926 9.34731 0.95601 9.37029 0.95601 9.39264V17.1438C0.95601 17.1661 0.955926 17.1891 0.95584 17.2127C0.954923 17.4646 0.953768 17.7815 1.05243 18.0801C1.13773 18.3382 1.27716 18.5752 1.46141 18.7751C1.67453 19.0064 1.95204 19.1593 2.17275 19.2808C2.19338 19.2922 2.21351 19.3033 2.23305 19.3141L9.29942 23.2399L9.35626 23.2716C9.56476 23.3884 9.82701 23.5353 10.1204 23.5957C10.3743 23.6479 10.6361 23.6479 10.8899 23.5957C11.1833 23.5353 11.4456 23.3884 11.6541 23.2716L11.7109 23.2399L18.7773 19.3141C18.7859 19.3093 18.7947 19.3045 18.8035 19.2996C18.8147 19.2934 18.8261 19.2872 18.8376 19.2808C19.0583 19.1593 19.3358 19.0064 19.5489 18.7751C19.7332 18.5752 19.8726 18.3382 19.9579 18.0801C20.0566 17.7815 20.0554 17.4646 20.0545 17.2127C20.0544 17.1891 20.0543 17.1661 20.0543 17.1438V9.39264C20.0543 9.37029 20.0544 9.34731 20.0545 9.32376C20.0554 9.07178 20.0566 8.75496 19.9579 8.45636C19.8726 8.1982 19.7332 7.96122 19.5489 7.76128C19.3358 7.53002 19.0583 7.37716 18.8376 7.25559L18.8368 7.25517C18.8164 7.24396 18.7966 7.23301 18.7773 7.2223L11.7109 3.29653L11.6541 3.26478C11.4456 3.148 11.1833 3.00111 10.8899 2.94077ZM10.2269 4.96603C10.3716 4.88563 10.4455 4.84501 10.5006 4.81843L10.5052 4.81625L10.5097 4.81843C10.5648 4.84501 10.6387 4.88563 10.7834 4.96602L17.1331 8.49361L10.5051 12.1758L3.87723 8.49363L10.2269 4.96603ZM2.86584 10.1165L9.55022 13.8301L9.55024 21.1945L3.16054 17.6446C3.0078 17.5598 2.92982 17.516 2.8751 17.4811L2.87048 17.4782L2.87014 17.4727C2.86624 17.4079 2.86584 17.3185 2.86584 17.1438V10.1165Z" fill="#98A2B3" fill-opacity="0.6"/>
<g opacity="0.8">
<path d="M32.107 18.2458H35.9471V20.5087H29.1756V8.47426H32.107V18.2458Z" fill="#98A2B3" fill-opacity="0.6"/>
<path d="M38.6482 9.94857C38.1339 9.94857 37.711 9.79999 37.3796 9.50285C37.0596 9.19427 36.8996 8.81713 36.8996 8.37141C36.8996 7.91426 37.0596 7.53711 37.3796 7.23996C37.711 6.93139 38.1339 6.7771 38.6482 6.7771C39.1511 6.7771 39.5625 6.93139 39.8825 7.23996C40.2139 7.53711 40.3796 7.91426 40.3796 8.37141C40.3796 8.81713 40.2139 9.19427 39.8825 9.50285C39.5625 9.79999 39.1511 9.94857 38.6482 9.94857ZM40.1054 10.9429V20.5087H37.1739V10.9429H40.1054Z" fill="#98A2B3" fill-opacity="0.6"/>
<path d="M45.6927 10.8057C46.367 10.8057 46.9555 10.9429 47.4584 11.2172C47.9727 11.4914 48.367 11.8514 48.6413 12.2972V10.9429H51.5727V20.4916C51.5727 21.3716 51.3956 22.1659 51.0413 22.8744C50.6984 23.5944 50.167 24.1659 49.447 24.5887C48.7384 25.0116 47.8527 25.223 46.7898 25.223C45.3727 25.223 44.2241 24.8859 43.3441 24.2116C42.464 23.5487 41.9612 22.6459 41.8355 21.503H44.7326C44.8241 21.8687 45.0412 22.1544 45.3841 22.3601C45.7269 22.5773 46.1498 22.6859 46.6527 22.6859C47.2584 22.6859 47.7384 22.5087 48.0927 22.1544C48.4584 21.8116 48.6413 21.2573 48.6413 20.4916V19.1373C48.3555 19.583 47.9613 19.9487 47.4584 20.2344C46.9555 20.5087 46.367 20.6458 45.6927 20.6458C44.9041 20.6458 44.1898 20.4458 43.5498 20.0458C42.9098 19.6344 42.4012 19.0573 42.024 18.3144C41.6583 17.5601 41.4755 16.6915 41.4755 15.7086C41.4755 14.7258 41.6583 13.8629 42.024 13.12C42.4012 12.3772 42.9098 11.8057 43.5498 11.4057C44.1898 11.0057 44.9041 10.8057 45.6927 10.8057ZM48.6413 15.7258C48.6413 14.9943 48.4356 14.4172 48.0241 13.9943C47.6241 13.5715 47.1327 13.36 46.5498 13.36C45.9669 13.36 45.4698 13.5715 45.0584 13.9943C44.6584 14.4058 44.4584 14.9772 44.4584 15.7086C44.4584 16.4401 44.6584 17.0229 45.0584 17.4572C45.4698 17.8801 45.9669 18.0915 46.5498 18.0915C47.1327 18.0915 47.6241 17.8801 48.0241 17.4572C48.4356 17.0344 48.6413 16.4572 48.6413 15.7258Z" fill="#98A2B3" fill-opacity="0.6"/>
<path d="M59.4022 10.84C60.4993 10.84 61.3793 11.2057 62.0422 11.9372C62.7051 12.6572 63.0365 13.6515 63.0365 14.9201V20.5087H60.1222V15.3143C60.1222 14.6743 59.9564 14.1772 59.625 13.8229C59.2936 13.4686 58.8479 13.2915 58.2879 13.2915C57.7279 13.2915 57.2821 13.4686 56.9507 13.8229C56.6193 14.1772 56.4536 14.6743 56.4536 15.3143V20.5087H53.5221V7.82283H56.4536V12.2286C56.7507 11.8057 57.1564 11.4686 57.6707 11.2172C58.185 10.9657 58.7621 10.84 59.4022 10.84Z" fill="#98A2B3" fill-opacity="0.6"/>
<path d="M70.2336 18.023V20.5087H68.7422C67.6793 20.5087 66.8507 20.2516 66.2564 19.7373C65.6621 19.2115 65.365 18.3601 65.365 17.1829V13.3772H64.1993V10.9429H65.365V8.61141H68.2965V10.9429H70.2165V13.3772H68.2965V17.2172C68.2965 17.5029 68.365 17.7087 68.5022 17.8344C68.6393 17.9601 68.8679 18.023 69.1879 18.023H70.2336Z" fill="#98A2B3" fill-opacity="0.6"/>
<path d="M74.6265 12.2972C74.9008 11.8514 75.2951 11.4914 75.8094 11.2172C76.3237 10.9429 76.9123 10.8057 77.5751 10.8057C78.3637 10.8057 79.078 11.0057 79.718 11.4057C80.358 11.8057 80.8609 12.3772 81.2266 13.12C81.6038 13.8629 81.7923 14.7258 81.7923 15.7086C81.7923 16.6915 81.6038 17.5601 81.2266 18.3144C80.8609 19.0573 80.358 19.6344 79.718 20.0458C79.078 20.4458 78.3637 20.6458 77.5751 20.6458C76.9009 20.6458 76.3123 20.5144 75.8094 20.2516C75.3065 19.9773 74.9123 19.6173 74.6265 19.1715V20.5087H71.6951V7.82283H74.6265V12.2972ZM78.8094 15.7086C78.8094 14.9772 78.6037 14.4058 78.1923 13.9943C77.7923 13.5715 77.2951 13.36 76.7009 13.36C76.118 13.36 75.6208 13.5715 75.2094 13.9943C74.8094 14.4172 74.6094 14.9943 74.6094 15.7258C74.6094 16.4572 74.8094 17.0344 75.2094 17.4572C75.6208 17.8801 76.118 18.0915 76.7009 18.0915C77.2837 18.0915 77.7809 17.8801 78.1923 17.4572C78.6037 17.0229 78.8094 16.4401 78.8094 15.7086Z" fill="#98A2B3" fill-opacity="0.6"/>
<path d="M87.5132 20.6458C86.576 20.6458 85.7303 20.4458 84.976 20.0458C84.2331 19.6458 83.6445 19.0744 83.2103 18.3315C82.7874 17.5887 82.576 16.7201 82.576 15.7258C82.576 14.7429 82.7931 13.88 83.2274 13.1372C83.6617 12.3829 84.256 11.8057 85.0103 11.4057C85.7646 11.0057 86.6103 10.8057 87.5475 10.8057C88.4846 10.8057 89.3303 11.0057 90.0846 11.4057C90.8389 11.8057 91.4332 12.3829 91.8675 13.1372C92.3018 13.88 92.5189 14.7429 92.5189 15.7258C92.5189 16.7087 92.2961 17.5772 91.8504 18.3315C91.4161 19.0744 90.8161 19.6458 90.0503 20.0458C89.296 20.4458 88.4503 20.6458 87.5132 20.6458ZM87.5132 18.1087C88.0732 18.1087 88.5475 17.903 88.936 17.4915C89.336 17.0801 89.5361 16.4915 89.5361 15.7258C89.5361 14.9601 89.3418 14.3715 88.9532 13.96C88.576 13.5486 88.1075 13.3429 87.5475 13.3429C86.976 13.3429 86.5017 13.5486 86.1246 13.96C85.7474 14.3601 85.5589 14.9486 85.5589 15.7258C85.5589 16.4915 85.7417 17.0801 86.1074 17.4915C86.4846 17.903 86.9532 18.1087 87.5132 18.1087Z" fill="#98A2B3" fill-opacity="0.6"/>
<path d="M99.5599 20.5087L97.7256 17.8515L96.1827 20.5087H93.0113L96.1656 15.6229L92.9256 10.9429H96.217L98.0513 13.5829L99.5942 10.9429H102.766L99.5599 15.7601L102.851 20.5087H99.5599Z" fill="#98A2B3" fill-opacity="0.6"/>
</g>
</svg>
