<svg width="111" height="24" viewBox="0 0 111 24" fill="none" xmlns="http://www.w3.org/2000/svg">
<g opacity="0.84">
<path d="M16.7122 9.13629C16.7122 12.7305 13.4237 15.8185 9.13987 15.8185C4.85607 15.8185 1.56751 12.7305 1.56751 9.13629C1.56751 5.54208 4.85607 2.45411 9.13987 2.45411C13.4237 2.45411 16.7122 5.54208 16.7122 9.13629Z" stroke="#98A2B3" stroke-opacity="0.6" stroke-width="1.90919"/>
<path d="M20.9757 14.8638C20.9757 18.458 17.6872 21.546 13.4034 21.546C9.11956 21.546 5.831 18.458 5.831 14.8638C5.831 11.2696 9.11956 8.18165 13.4034 8.18165C17.6872 8.18165 20.9757 11.2696 20.9757 14.8638Z" stroke="#98A2B3" stroke-opacity="0.6" stroke-width="1.90919"/>
<path d="M28.9303 19.0716H32.2653V5.22545H28.9303V19.0716Z" fill="#98A2B3" fill-opacity="0.6"/>
<path d="M33.7285 19.0716H36.8205V13.6123C36.8205 12.3266 37.7702 11.3969 39.1174 11.3969C40.3984 11.3969 41.2597 12.2672 41.2597 13.4738V19.0716H44.3518V12.8606C44.3518 10.5661 42.7174 8.94413 40.1996 8.94413C38.6757 8.94413 37.4389 9.51776 36.8205 10.487V9.10238H33.7285V19.0716Z" fill="#98A2B3" fill-opacity="0.6"/>
<path d="M46.5909 6.15512V9.10238H44.4486V11.3969H46.5909V15.4518C46.5909 17.7661 48.2473 19.0716 50.8093 19.0716H52.6424V16.7573H51.2289C50.2351 16.7573 49.6608 16.3024 49.6608 15.3331V11.3969H52.6424V9.10238H49.6608V6.15512H46.5909Z" fill="#98A2B3" fill-opacity="0.6"/>
<path d="M60.4448 15.6892C60.2018 16.5397 59.3847 16.9749 58.1479 16.9749C56.6019 16.9749 55.608 16.1046 55.3871 14.7002H63.3822C63.4043 14.4826 63.4264 14.1859 63.4264 13.8101C63.4264 11.5353 61.8583 8.94413 57.927 8.94413C54.1503 8.94413 52.4276 11.5353 52.4276 14.0672C52.4276 16.5793 54.3712 19.2298 58.1479 19.2298C60.8865 19.2298 63.0068 17.8452 63.4485 15.6892H60.4448ZM57.927 10.9617C59.4068 10.9617 60.2681 11.8518 60.3565 12.9595H55.4313C55.6963 11.5749 56.5356 10.9617 57.927 10.9617Z" fill="#98A2B3" fill-opacity="0.6"/>
<path d="M71.1527 11.3969V9.10238H69.8938C68.5465 9.10238 67.7073 9.51776 67.1109 10.7639V9.10238H64.0189V19.0716H67.1109V14.2255C67.1109 12.5244 67.7956 11.3969 69.3195 11.3969H71.1527Z" fill="#98A2B3" fill-opacity="0.6"/>
<path d="M71.6539 19.0716H74.7238V4.77051H71.6539V19.0716Z" fill="#98A2B3" fill-opacity="0.6"/>
<path d="M81.346 19.2298C84.7693 19.2298 87.2208 17.054 87.2208 14.087C87.2208 11.12 84.7693 8.94413 81.346 8.94413C77.9227 8.94413 75.4711 11.12 75.4711 14.087C75.4711 17.054 77.9227 19.2298 81.346 19.2298ZM81.346 16.8562C79.6895 16.8562 78.5632 15.7288 78.5632 14.087C78.5632 12.4255 79.6895 11.298 81.346 11.298C83.0024 11.298 84.1288 12.4255 84.1288 14.087C84.1288 15.7288 83.0024 16.8562 81.346 16.8562Z" fill="#98A2B3" fill-opacity="0.6"/>
<path d="M92.9639 19.2298C95.8571 19.2298 98.154 17.5683 98.4853 15.3529H95.3491C95.1283 16.243 94.2228 16.8562 93.0964 16.8562C91.4178 16.8562 90.424 15.709 90.424 14.087C90.424 12.465 91.3958 11.298 93.0522 11.298C94.1786 11.298 95.1283 11.9507 95.305 12.8408H98.397C98.1982 10.5266 95.8792 8.94413 92.9639 8.94413C89.5185 8.94413 87.2215 11.1793 87.2215 14.087C87.2215 16.9947 89.5185 19.2298 92.9639 19.2298Z" fill="#98A2B3" fill-opacity="0.6"/>
<path d="M106.606 19.0716H110.316L105.524 13.0189L109.963 9.10238H106.076L102.211 12.5046V4.77051H99.1189V19.0716H102.211V15.9463L103.448 14.8584L106.606 19.0716Z" fill="#98A2B3" fill-opacity="0.6"/>
</g>
</svg>
