<svg width="121" height="26" viewBox="0 0 121 26" fill="none" xmlns="http://www.w3.org/2000/svg">
<path d="M16.0376 2.08643H7.67483L0.942505 8.81874V17.1815L7.67483 23.9139H16.0376L22.7699 17.1815V8.81874L16.0376 2.08643ZM8.83194 17.2867L4.51906 12.9738L8.83194 8.66096C10.4624 7.03047 13.1448 7.03047 14.7753 8.66096L19.0882 12.9738L14.7753 17.2867C13.1448 18.9172 10.515 18.9172 8.83194 17.2867Z" fill="#98A2B3" fill-opacity="0.6"/>
<g opacity="0.8">
<path d="M36.1434 19.9621C37.8578 19.9621 39.2673 19.0859 39.7054 17.7716V19.8097H42.2388V14.6668C42.2388 13.5048 41.3245 12.5144 40.0864 12.5144H36.4673V14.6668H39.0387C39.3625 14.6668 39.5721 14.8763 39.5721 15.2001C39.5721 16.4382 37.9339 17.6382 36.2768 17.6382C34.0672 17.6382 32.3148 15.9049 32.3148 13.1429C32.3148 10.381 34.0672 8.78098 36.3339 8.78098C38.0482 8.78098 39.2292 9.71432 39.4387 11.1429H42.2769C42.1054 8.28573 39.7054 6.3238 36.353 6.3238C32.8291 6.3238 29.591 8.5905 29.591 13.1429C29.591 17.6954 32.7339 19.9621 36.1434 19.9621Z" fill="#98A2B3" fill-opacity="0.6"/>
<path d="M43.3263 19.8097H45.9739V6.03809H43.3263V19.8097Z" fill="#98A2B3" fill-opacity="0.6"/>
<path d="M51.6852 19.9621C54.6376 19.9621 56.7519 17.8668 56.7519 15.0096C56.7519 12.1524 54.6376 10.0572 51.6852 10.0572C48.7327 10.0572 46.6184 12.1524 46.6184 15.0096C46.6184 17.8668 48.7327 19.9621 51.6852 19.9621ZM51.6852 17.6763C50.2566 17.6763 49.2851 16.5906 49.2851 15.0096C49.2851 13.4096 50.2566 12.3239 51.6852 12.3239C53.1137 12.3239 54.0852 13.4096 54.0852 15.0096C54.0852 16.5906 53.1137 17.6763 51.6852 17.6763Z" fill="#98A2B3" fill-opacity="0.6"/>
<path d="M62.6764 19.9621C65.5145 19.9621 67.2098 18.0001 67.2098 15.0096C67.2098 12.0191 65.5145 10.0572 62.7145 10.0572C61.5144 10.0572 60.5811 10.5143 60.0478 11.2191V6.03809H57.4001V19.8097H60.0478V18.7621C60.5811 19.5049 61.5716 19.9621 62.6764 19.9621ZM62.2573 17.6763C60.8287 17.6763 59.8954 16.6096 59.8954 15.0096C59.8954 13.3906 60.8287 12.3239 62.2573 12.3239C63.6478 12.3239 64.6002 13.3906 64.6002 15.0096C64.6002 16.6096 63.6478 17.6763 62.2573 17.6763Z" fill="#98A2B3" fill-opacity="0.6"/>
<path d="M71.6418 10.0572C69.0132 10.0572 67.4513 11.6001 67.337 13.5239H69.6989C69.737 12.7239 70.3275 12.0001 71.4894 12.0001C72.5751 12.0001 73.2037 12.5525 73.2037 13.3525C73.2037 13.7525 72.9561 14.0572 72.4799 14.0572H70.8608C68.7656 14.0572 67.356 15.2001 67.356 17.0858C67.356 18.724 68.6322 19.9621 70.4989 19.9621C71.8132 19.9621 72.8799 19.3716 73.2037 18.4763V19.8097H75.8323V13.6382C75.8323 11.4667 74.0609 10.0572 71.6418 10.0572ZM71.1656 18.0382C70.4227 18.0382 69.8894 17.6001 69.8894 16.9716C69.8894 16.2287 70.4608 15.7334 71.2608 15.7334H73.2037V15.8668C73.2037 17.0858 72.4609 18.0382 71.1656 18.0382Z" fill="#98A2B3" fill-opacity="0.6"/>
<path d="M76.8498 19.8097H79.4974V6.03809H76.8498V19.8097Z" fill="#98A2B3" fill-opacity="0.6"/>
<path d="M80.9038 19.8097H86.3515C89.1706 19.8097 91.1135 18.362 91.1135 15.8287C91.1135 14.0763 90.0849 13.0096 88.8658 12.5334C89.6468 12.1144 90.4277 11.162 90.4277 9.9048C90.4277 7.6762 88.6182 6.47619 86.1991 6.47619H80.9038V19.8097ZM83.7229 11.562V8.74288H85.9325C87.2087 8.74288 87.7801 9.25717 87.7801 10.1524C87.7801 11.0477 87.2087 11.562 85.9896 11.562H83.7229ZM83.7229 17.3335V13.981H86.1039C87.6849 13.981 88.3896 14.5906 88.3896 15.6763C88.3896 16.762 87.6849 17.3335 86.1039 17.3335H83.7229Z" fill="#98A2B3" fill-opacity="0.6"/>
<path d="M95.7195 10.0572C93.0909 10.0572 91.529 11.6001 91.4147 13.5239H93.7766C93.8147 12.7239 94.4052 12.0001 95.5671 12.0001C96.6528 12.0001 97.2814 12.5525 97.2814 13.3525C97.2814 13.7525 97.0338 14.0572 96.5576 14.0572H94.9385C92.8433 14.0572 91.4337 15.2001 91.4337 17.0858C91.4337 18.724 92.7099 19.9621 94.5766 19.9621C95.8909 19.9621 96.9576 19.3716 97.2814 18.4763V19.8097H99.91V13.6382C99.91 11.4667 98.1386 10.0572 95.7195 10.0572ZM95.2433 18.0382C94.5004 18.0382 93.9671 17.6001 93.9671 16.9716C93.9671 16.2287 94.5385 15.7334 95.3385 15.7334H97.2814V15.8668C97.2814 17.0858 96.5385 18.0382 95.2433 18.0382Z" fill="#98A2B3" fill-opacity="0.6"/>
<path d="M100.775 19.8097H103.442V14.5525C103.442 13.3144 104.261 12.4191 105.423 12.4191C106.528 12.4191 107.27 13.2572 107.27 14.4191V19.8097H109.937V13.8287C109.937 11.6191 108.528 10.0572 106.356 10.0572C105.042 10.0572 103.975 10.6096 103.442 11.5429V10.2096H100.775V19.8097Z" fill="#98A2B3" fill-opacity="0.6"/>
<path d="M117.537 19.8097H120.737L116.604 13.981L120.433 10.2096H117.08L113.747 13.4858V6.03809H111.08V19.8097H113.747V16.8001L114.813 15.7525L117.537 19.8097Z" fill="#98A2B3" fill-opacity="0.6"/>
</g>
</svg>
