<svg width="580" height="371" viewBox="0 0 580 371" fill="none" xmlns="http://www.w3.org/2000/svg">
<g filter="url(#filter0_d_1_559)">
<rect x="2" y="1" width="576" height="367" rx="20" fill="#FCFCFD"/>
<rect x="2.1" y="1.1" width="575.8" height="366.8" rx="19.9" stroke="#D0D5DD" stroke-width="0.2"/>
<g clip-path="url(#clip0_1_559)">
<path fill-rule="evenodd" clip-rule="evenodd" d="M82 21H102V41H82V21Z" fill="white"/>
<path fill-rule="evenodd" clip-rule="evenodd" d="M95.3313 21H102V41H95.3313V21ZM82 21H88.6656V41H82V21Z" fill="#008753"/>
</g>
<path d="M108.226 36H107.218V25.976H108.24L113.756 34.32V25.976H114.75V36H113.756L108.226 27.656V36ZM121.398 26.76C119.088 26.76 117.632 28.468 117.632 31.03C117.632 33.634 119.172 35.216 121.426 35.216C123.106 35.216 124.744 34.404 124.744 31.996V31.478H121.118V30.582H125.696V36.014H124.898L124.8 34.418C124.268 35.412 123.008 36.168 121.384 36.168C118.542 36.168 116.582 34.124 116.582 31.03C116.582 27.964 118.542 25.808 121.412 25.808C123.526 25.808 125.164 27.012 125.556 28.832H124.464C124.044 27.46 122.868 26.76 121.398 26.76ZM128.706 36H127.698V25.976H128.72L134.236 34.32V25.976H135.23V36H134.236L128.706 27.656V36Z" fill="#667085"/>
<g clip-path="url(#clip1_1_559)">
<path d="M205.333 21H225.333V41H205.333" fill="#BD3D44"/>
<path d="M205.333 23.3042H225.333H205.333ZM205.333 26.375H225.333H205.333ZM205.333 29.4584H225.333H205.333ZM205.333 32.5417H225.333H205.333ZM205.333 35.625H225.333H205.333ZM205.333 38.7084H225.333H205.333Z" fill="black"/>
<path d="M205.333 23.3042H225.333M205.333 26.375H225.333M205.333 29.4584H225.333M205.333 32.5417H225.333M205.333 35.625H225.333M205.333 38.7084H225.333" stroke="white" stroke-width="1.8"/>
<path d="M205.333 21H216.733V31.7708H205.333" fill="#192F5D"/>
</g>
<path d="M230.397 32.262V25.766H232.189V32.15C232.189 33.62 232.987 34.432 234.443 34.432C235.899 34.432 236.711 33.606 236.711 32.15V25.766H238.503V32.262C238.503 34.656 236.935 36.168 234.443 36.168C231.965 36.168 230.397 34.67 230.397 32.262ZM240.12 28.622C240.12 26.83 241.604 25.584 243.76 25.584C245.832 25.584 247.148 26.732 247.204 28.58H245.412C245.37 27.698 244.74 27.18 243.732 27.18C242.626 27.18 241.912 27.712 241.912 28.566C241.912 29.294 242.304 29.7 243.158 29.896L244.768 30.246C246.518 30.624 247.372 31.52 247.372 33.046C247.372 34.95 245.888 36.182 243.634 36.182C241.45 36.182 240.022 35.02 239.98 33.186H241.772C241.786 34.054 242.486 34.572 243.634 34.572C244.824 34.572 245.58 34.054 245.58 33.2C245.58 32.514 245.23 32.108 244.39 31.926L242.766 31.562C241.03 31.184 240.12 30.19 240.12 28.622ZM252.675 36H248.993V25.766H252.577C255.601 25.766 257.687 27.852 257.687 30.904C257.687 33.914 255.643 36 252.675 36ZM252.409 27.418H250.785V34.348H252.507C254.551 34.348 255.797 33.032 255.797 30.904C255.797 28.734 254.523 27.418 252.409 27.418Z" fill="#182230"/>
<g clip-path="url(#clip2_1_559)">
<path d="M326.667 21H346.667V41H326.667V21Z" fill="#003399"/>
<path d="M336.667 24.1823L336.444 25.1699L336.815 25.2687L336.667 24.1823Z" fill="#FFCC00"/>
<path d="M336.667 24.1823L336.889 25.1699L336.519 25.2687L336.667 24.1823Z" fill="#FFCC00"/>
<path d="M337.38 24.8372L336.6 24.9297L336.621 25.3883L337.38 24.8372Z" fill="#FFCC00"/>
<path d="M337.384 24.8463L336.716 25.4475L336.55 25.0583L337.384 24.8463Z" fill="#FFCC00"/>
<path d="M337.092 25.9612L336.861 24.9939L336.503 25.2254L337.092 25.9612Z" fill="#FFCC00"/>
<path d="M337.096 25.9573L336.485 25.3616L336.759 24.9739L337.096 25.9573Z" fill="#FFCC00"/>
<path d="M335.954 24.8372L336.733 24.9297L336.712 25.3883L335.954 24.8372Z" fill="#FFCC00"/>
<path d="M335.95 24.8463L336.617 25.4475L336.783 25.0583L335.95 24.8463Z" fill="#FFCC00"/>
<path d="M336.241 25.9612L336.472 24.9939L336.83 25.2254L336.241 25.9612Z" fill="#FFCC00"/>
<path d="M336.238 25.9573L336.848 25.3616L336.574 24.9739L336.238 25.9573Z" fill="#FFCC00"/>
<path d="M336.667 36.0341L336.444 37.0218L336.815 37.1205L336.667 36.0341Z" fill="#FFCC00"/>
<path d="M336.667 36.0341L336.889 37.0218L336.519 37.1205L336.667 36.0341Z" fill="#FFCC00"/>
<path d="M337.38 36.6891L336.6 36.7816L336.621 37.2401L337.38 36.6891Z" fill="#FFCC00"/>
<path d="M337.384 36.6982L336.716 37.2994L336.55 36.9102L337.384 36.6982Z" fill="#FFCC00"/>
<path d="M337.092 37.813L336.861 36.8458L336.503 37.0773L337.092 37.813Z" fill="#FFCC00"/>
<path d="M337.096 37.8092L336.485 37.2135L336.759 36.8257L337.096 37.8092Z" fill="#FFCC00"/>
<path d="M335.954 36.6891L336.733 36.7816L336.712 37.2401L335.954 36.6891Z" fill="#FFCC00"/>
<path d="M335.95 36.6982L336.617 37.2994L336.783 36.9102L335.95 36.6982Z" fill="#FFCC00"/>
<path d="M336.241 37.813L336.472 36.8458L336.83 37.0773L336.241 37.813Z" fill="#FFCC00"/>
<path d="M336.238 37.8092L336.848 37.2135L336.574 36.8257L336.238 37.8092Z" fill="#FFCC00"/>
<path d="M332.222 30.1082L332 31.0959L332.37 31.1946L332.222 30.1082Z" fill="#FFCC00"/>
<path d="M332.222 30.1082L332.444 31.0959L332.074 31.1946L332.222 30.1082Z" fill="#FFCC00"/>
<path d="M332.935 30.7632L332.156 30.8557L332.177 31.3142L332.935 30.7632Z" fill="#FFCC00"/>
<path d="M332.939 30.7723L332.272 31.3735L332.106 30.9843L332.939 30.7723Z" fill="#FFCC00"/>
<path d="M332.648 31.8871L332.417 30.9199L332.059 31.1514L332.648 31.8871Z" fill="#FFCC00"/>
<path d="M332.651 31.8833L332.041 31.2876L332.315 30.8998L332.651 31.8833Z" fill="#FFCC00"/>
<path d="M331.509 30.7632L332.289 30.8557L332.268 31.3142L331.509 30.7632Z" fill="#FFCC00"/>
<path d="M331.505 30.7723L332.173 31.3735L332.338 30.9843L331.505 30.7723Z" fill="#FFCC00"/>
<path d="M331.797 31.8871L332.028 30.9199L332.386 31.1514L331.797 31.8871Z" fill="#FFCC00"/>
<path d="M331.793 31.8833L332.403 31.2876L332.13 30.8998L331.793 31.8833Z" fill="#FFCC00"/>
<path d="M334.07 26.7954L334.68 26.2011L334.406 25.8125L334.07 26.7954Z" fill="#FFCC00"/>
<path d="M334.074 26.7996L334.304 25.8326L334.662 26.0651L334.074 26.7996Z" fill="#FFCC00"/>
<path d="M333.787 25.6945L334.441 26.2884L334.615 25.8736L333.787 25.6945Z" fill="#FFCC00"/>
<path d="M333.79 25.69L334.567 25.7471L334.536 26.227L333.79 25.69Z" fill="#FFCC00"/>
<path d="M334.481 25.0345L334.304 25.988L334.647 26.1074L334.481 25.0345Z" fill="#FFCC00"/>
<path d="M334.487 25.03L334.718 26.0106L334.381 26.0847L334.487 25.03Z" fill="#FFCC00"/>
<path d="M334.94 26.8185L334.321 26.1664L334.561 25.8126L334.94 26.8185Z" fill="#FFCC00"/>
<path d="M334.943 26.8149L334.666 25.8361L334.336 26.0267L334.943 26.8149Z" fill="#FFCC00"/>
<path d="M335.198 25.7117L334.576 26.2924L334.383 25.8307L335.198 25.7117Z" fill="#FFCC00"/>
<path d="M335.2 25.7159L334.43 25.7081L334.483 26.2271L335.2 25.7159Z" fill="#FFCC00"/>
<path d="M333.277 28.9965L333.046 28.0296L332.688 28.262L333.277 28.9965Z" fill="#FFCC00"/>
<path d="M333.28 28.9925L332.67 28.3981L332.944 28.0096L333.28 28.9925Z" fill="#FFCC00"/>
<path d="M332.41 29.0155L333.03 28.3633L332.789 28.0096L332.41 29.0155Z" fill="#FFCC00"/>
<path d="M332.407 29.0118L332.685 28.0331L333.015 28.2237L332.407 29.0118Z" fill="#FFCC00"/>
<path d="M332.152 27.9087L332.775 28.4893L332.967 28.0277L332.152 27.9087Z" fill="#FFCC00"/>
<path d="M332.15 27.9128L332.921 27.9051L332.867 28.424L332.15 27.9128Z" fill="#FFCC00"/>
<path d="M333.563 27.8915L332.909 28.4854L332.735 28.0706L333.563 27.8915Z" fill="#FFCC00"/>
<path d="M333.561 27.887L332.784 27.9441L332.815 28.424L333.561 27.887Z" fill="#FFCC00"/>
<path d="M332.869 27.2315L333.046 28.185L332.703 28.3043L332.869 27.2315Z" fill="#FFCC00"/>
<path d="M332.863 27.2269L332.632 28.2076L332.97 28.2817L332.863 27.2269Z" fill="#FFCC00"/>
<path d="M333.568 33.8027L332.786 33.9212L332.799 34.3641L333.568 33.8027Z" fill="#FFCC00"/>
<path d="M333.573 33.8153L332.895 34.4218L332.736 34.0514L333.573 33.8153Z" fill="#FFCC00"/>
<path d="M333.263 34.9211L333.068 33.9661L332.689 34.2407L333.263 34.9211Z" fill="#FFCC00"/>
<path d="M333.271 34.9094L332.669 34.3733L332.969 33.9496L333.271 34.9094Z" fill="#FFCC00"/>
<path d="M332.409 34.9669L333.03 34.2862L332.796 33.9496L332.409 34.9669Z" fill="#FFCC00"/>
<path d="M332.405 34.9595L332.691 33.9749L333.015 34.1449L332.405 34.9595Z" fill="#FFCC00"/>
<path d="M332.88 33.1963L333.032 34.0879L332.704 34.2445L332.88 33.1963Z" fill="#FFCC00"/>
<path d="M332.871 33.1835L332.634 34.1515L332.953 34.1809L332.871 33.1835Z" fill="#FFCC00"/>
<path d="M332.149 33.8649L332.921 33.8269L332.874 34.3641L332.149 33.8649Z" fill="#FFCC00"/>
<path d="M332.149 33.8568L332.781 34.4312L332.968 33.9476L332.149 33.8568Z" fill="#FFCC00"/>
<path d="M335.175 35.7907L334.394 35.9092L334.407 36.3521L335.175 35.7907Z" fill="#FFCC00"/>
<path d="M335.181 35.8033L334.503 36.4098L334.344 36.0394L335.181 35.8033Z" fill="#FFCC00"/>
<path d="M334.871 36.9091L334.676 35.9541L334.296 36.2287L334.871 36.9091Z" fill="#FFCC00"/>
<path d="M334.879 36.8973L334.276 36.3613L334.576 35.9376L334.879 36.8973Z" fill="#FFCC00"/>
<path d="M334.016 36.9548L334.638 36.2742L334.404 35.9376L334.016 36.9548Z" fill="#FFCC00"/>
<path d="M334.012 36.9475L334.298 35.9628L334.623 36.1329L334.012 36.9475Z" fill="#FFCC00"/>
<path d="M334.488 35.1842L334.639 36.0759L334.312 36.2325L334.488 35.1842Z" fill="#FFCC00"/>
<path d="M334.479 35.1715L334.242 36.1395L334.561 36.1688L334.479 35.1715Z" fill="#FFCC00"/>
<path d="M333.756 35.8529L334.529 35.8149L334.482 36.3521L333.756 35.8529Z" fill="#FFCC00"/>
<path d="M333.757 35.8448L334.388 36.4192L334.576 35.9356L333.757 35.8448Z" fill="#FFCC00"/>
<path d="M341.111 30.1082L341.333 31.0959L340.963 31.1946L341.111 30.1082Z" fill="#FFCC00"/>
<path d="M341.111 30.1082L340.889 31.0959L341.259 31.1946L341.111 30.1082Z" fill="#FFCC00"/>
<path d="M340.398 30.7632L341.178 30.8557L341.157 31.3142L340.398 30.7632Z" fill="#FFCC00"/>
<path d="M340.394 30.7723L341.062 31.3735L341.227 30.9843L340.394 30.7723Z" fill="#FFCC00"/>
<path d="M340.685 31.8871L340.917 30.9199L341.275 31.1514L340.685 31.8871Z" fill="#FFCC00"/>
<path d="M340.682 31.8833L341.292 31.2876L341.019 30.8998L340.682 31.8833Z" fill="#FFCC00"/>
<path d="M341.824 30.7632L341.044 30.8557L341.065 31.3142L341.824 30.7632Z" fill="#FFCC00"/>
<path d="M341.828 30.7723L341.161 31.3735L340.995 30.9843L341.828 30.7723Z" fill="#FFCC00"/>
<path d="M341.537 31.8871L341.306 30.9199L340.948 31.1514L341.537 31.8871Z" fill="#FFCC00"/>
<path d="M341.54 31.8833L340.93 31.2876L341.204 30.8998L341.54 31.8833Z" fill="#FFCC00"/>
<path d="M339.263 26.7954L338.653 26.2011L338.928 25.8125L339.263 26.7954Z" fill="#FFCC00"/>
<path d="M339.26 26.7996L339.03 25.8326L338.671 26.0651L339.26 26.7996Z" fill="#FFCC00"/>
<path d="M339.546 25.6945L338.892 26.2884L338.718 25.8736L339.546 25.6945Z" fill="#FFCC00"/>
<path d="M339.544 25.69L338.767 25.7471L338.798 26.227L339.544 25.69Z" fill="#FFCC00"/>
<path d="M338.852 25.0345L339.029 25.988L338.686 26.1074L338.852 25.0345Z" fill="#FFCC00"/>
<path d="M338.846 25.03L338.615 26.0106L338.953 26.0847L338.846 25.03Z" fill="#FFCC00"/>
<path d="M338.393 26.8185L339.013 26.1664L338.773 25.8126L338.393 26.8185Z" fill="#FFCC00"/>
<path d="M338.39 26.8149L338.668 25.8361L338.998 26.0267L338.39 26.8149Z" fill="#FFCC00"/>
<path d="M338.135 25.7117L338.758 26.2924L338.951 25.8307L338.135 25.7117Z" fill="#FFCC00"/>
<path d="M338.133 25.7159L338.904 25.7081L338.85 26.2271L338.133 25.7159Z" fill="#FFCC00"/>
<path d="M340.057 28.9965L340.287 28.0296L340.646 28.262L340.057 28.9965Z" fill="#FFCC00"/>
<path d="M340.054 28.9925L340.663 28.3981L340.389 28.0096L340.054 28.9925Z" fill="#FFCC00"/>
<path d="M340.923 29.0155L340.304 28.3633L340.544 28.0096L340.923 29.0155Z" fill="#FFCC00"/>
<path d="M340.926 29.0118L340.649 28.0331L340.319 28.2237L340.926 29.0118Z" fill="#FFCC00"/>
<path d="M341.181 27.9087L340.559 28.4893L340.366 28.0277L341.181 27.9087Z" fill="#FFCC00"/>
<path d="M341.183 27.9128L340.413 27.9051L340.466 28.424L341.183 27.9128Z" fill="#FFCC00"/>
<path d="M339.77 27.8915L340.424 28.4854L340.598 28.0706L339.77 27.8915Z" fill="#FFCC00"/>
<path d="M339.773 27.887L340.55 27.9441L340.519 28.424L339.773 27.887Z" fill="#FFCC00"/>
<path d="M340.464 27.2315L340.287 28.185L340.63 28.3043L340.464 27.2315Z" fill="#FFCC00"/>
<path d="M340.47 27.2269L340.702 28.2076L340.364 28.2817L340.47 27.2269Z" fill="#FFCC00"/>
<path d="M339.766 33.8027L340.547 33.9212L340.534 34.3641L339.766 33.8027Z" fill="#FFCC00"/>
<path d="M339.76 33.8153L340.438 34.4218L340.598 34.0514L339.76 33.8153Z" fill="#FFCC00"/>
<path d="M340.07 34.9211L340.265 33.9661L340.645 34.2407L340.07 34.9211Z" fill="#FFCC00"/>
<path d="M340.062 34.9094L340.665 34.3733L340.365 33.9496L340.062 34.9094Z" fill="#FFCC00"/>
<path d="M340.925 34.9669L340.303 34.2862L340.537 33.9496L340.925 34.9669Z" fill="#FFCC00"/>
<path d="M340.929 34.9595L340.643 33.9749L340.318 34.1449L340.929 34.9595Z" fill="#FFCC00"/>
<path d="M340.453 33.1963L340.302 34.0879L340.629 34.2445L340.453 33.1963Z" fill="#FFCC00"/>
<path d="M340.463 33.1835L340.699 34.1515L340.38 34.1809L340.463 33.1835Z" fill="#FFCC00"/>
<path d="M341.185 33.8649L340.412 33.8269L340.46 34.3641L341.185 33.8649Z" fill="#FFCC00"/>
<path d="M341.184 33.8568L340.553 34.4312L340.365 33.9476L341.184 33.8568Z" fill="#FFCC00"/>
<path d="M338.158 35.7907L338.94 35.9092L338.926 36.3521L338.158 35.7907Z" fill="#FFCC00"/>
<path d="M338.152 35.8033L338.83 36.4098L338.99 36.0394L338.152 35.8033Z" fill="#FFCC00"/>
<path d="M338.462 36.9091L338.657 35.9541L339.037 36.2287L338.462 36.9091Z" fill="#FFCC00"/>
<path d="M338.454 36.8973L339.057 36.3613L338.757 35.9376L338.454 36.8973Z" fill="#FFCC00"/>
<path d="M339.317 36.9548L338.696 36.2742L338.93 35.9376L339.317 36.9548Z" fill="#FFCC00"/>
<path d="M339.321 36.9475L339.035 35.9628L338.71 36.1329L339.321 36.9475Z" fill="#FFCC00"/>
<path d="M338.846 35.1842L338.694 36.0759L339.022 36.2325L338.846 35.1842Z" fill="#FFCC00"/>
<path d="M338.855 35.1715L339.092 36.1395L338.772 36.1688L338.855 35.1715Z" fill="#FFCC00"/>
<path d="M339.577 35.8529L338.805 35.8149L338.852 36.3521L339.577 35.8529Z" fill="#FFCC00"/>
<path d="M339.576 35.8448L338.945 36.4192L338.757 35.9356L339.576 35.8448Z" fill="#FFCC00"/>
</g>
<path d="M357.891 36H351.885V25.976H357.877V26.9H352.893V30.512H357.415V31.422H352.893V35.076H357.891V36ZM359.867 32.514V25.976H360.875V32.472C360.875 34.236 361.841 35.188 363.591 35.188C365.299 35.188 366.265 34.208 366.265 32.472V25.976H367.273V32.514C367.273 34.782 365.873 36.168 363.591 36.168C361.267 36.168 359.867 34.796 359.867 32.514ZM370.652 36H369.644V25.976H373.382C375.412 25.976 376.644 27.096 376.644 28.874C376.644 30.316 375.888 31.324 374.6 31.674L376.742 36H375.622L373.578 31.842H370.652V36ZM370.652 26.886V30.932H373.41C374.796 30.932 375.608 30.176 375.608 28.902C375.608 27.6 374.754 26.886 373.382 26.886H370.652Z" fill="#667085"/>
<g clip-path="url(#clip3_1_559)">
<path d="M446 21H466V41H446V21Z" fill="#012169"/>
<path d="M448.344 21L455.969 28.5417L463.562 21H466V23.5833L458.5 31.0417L466 38.4583V41H463.5L456 33.5417L448.531 41H446V38.5L453.469 31.0833L446 23.6667V21H448.344Z" fill="white"/>
<path d="M459.25 32.7083L466 39.3333V41L457.531 32.7083H459.25ZM453.5 33.5417L453.688 35L447.688 41H446L453.5 33.5417ZM466 21V21.125L458.219 28.9583L458.281 27.125L464.438 21H466ZM446 21L453.469 28.3333H451.594L446 22.75V21Z" fill="#C8102E"/>
<path d="M453.531 21V41H458.531V21H453.531ZM446 27.6667V34.3333H466V27.6667H446Z" fill="white"/>
<path d="M446 29.0417V33.0417H466V29.0417H446ZM454.531 21V41H457.531V21H454.531Z" fill="#C8102E"/>
</g>
<path d="M475.418 26.76C473.108 26.76 471.652 28.468 471.652 31.03C471.652 33.634 473.192 35.216 475.446 35.216C477.126 35.216 478.764 34.404 478.764 31.996V31.478H475.138V30.582H479.716V36.014H478.918L478.82 34.418C478.288 35.412 477.028 36.168 475.404 36.168C472.562 36.168 470.602 34.124 470.602 31.03C470.602 27.964 472.562 25.808 475.432 25.808C477.546 25.808 479.184 27.012 479.576 28.832H478.484C478.064 27.46 476.888 26.76 475.418 26.76ZM481.718 36V25.976H485.386C487.318 25.976 488.508 26.956 488.508 28.566C488.508 29.742 487.99 30.54 486.954 30.946C488.116 31.324 488.704 32.136 488.704 33.368C488.704 34.978 487.5 36 485.596 36H481.718ZM485.372 26.872H482.726V30.54H485.498C486.758 30.54 487.472 29.84 487.472 28.65C487.472 27.53 486.716 26.872 485.372 26.872ZM485.596 31.422H482.726V35.09H485.596C486.912 35.09 487.682 34.404 487.682 33.242C487.682 32.108 486.898 31.422 485.596 31.422ZM494.345 32.318H491.531V36H490.523V25.976H494.345C496.277 25.976 497.495 27.236 497.495 29.126C497.495 30.946 496.263 32.318 494.345 32.318ZM494.205 26.886H491.531V31.408H494.149C495.605 31.408 496.445 30.484 496.445 29.112C496.445 27.726 495.591 26.886 494.205 26.886Z" fill="#667085"/>
<rect x="2" y="61" width="576" height="1" rx="0.5" fill="#EAECF0"/>
<rect x="185" y="60" width="100" height="2" rx="1" fill="#363F72"/>
<mask id="path-145-inside-1_1_559" fill="white">
<path d="M2 82H578V120H2V82Z"/>
</mask>
<path d="M578 119.2H2V120.8H578V119.2Z" fill="#EAECF0" mask="url(#path-145-inside-1_1_559)"/>
<path d="M25.28 97H23.296V85.304H25.28L29.056 94.616L32.832 85.304H34.848V97H32.864V93.4C32.864 91.048 32.864 90.36 32.976 89.528L30 97H28.112L25.152 89.544C25.264 90.248 25.28 91.352 25.28 92.808V97ZM39.5006 97.208C37.8206 97.208 36.7966 96.232 36.7966 94.744C36.7966 93.288 37.8526 92.376 39.7246 92.232L42.0926 92.056V91.88C42.0926 90.808 41.4526 90.376 40.4606 90.376C39.3086 90.376 38.6686 90.856 38.6686 91.688H37.0046C37.0046 89.976 38.4126 88.856 40.5566 88.856C42.6846 88.856 43.9966 90.008 43.9966 92.2V97H42.2846L42.1406 95.832C41.8046 96.648 40.7326 97.208 39.5006 97.208ZM40.1406 95.736C41.3406 95.736 42.1086 95.016 42.1086 93.8V93.384L40.4606 93.512C39.2446 93.624 38.7806 94.024 38.7806 94.664C38.7806 95.384 39.2606 95.736 40.1406 95.736ZM47.8823 97H45.9463V85.096H47.8823V92.408L50.9543 89.096H53.4023L50.3943 92.232L53.3383 97H51.0983L49.0343 93.672L47.8823 94.872V97ZM57.7003 97.208C55.3483 97.208 53.7003 95.496 53.7003 93.048C53.7003 90.568 55.3163 88.856 57.6363 88.856C60.0043 88.856 61.5083 90.44 61.5083 92.904V93.496L55.5563 93.512C55.7003 94.904 56.4363 95.608 57.7323 95.608C58.8043 95.608 59.5083 95.192 59.7323 94.44H61.5403C61.2043 96.168 59.7643 97.208 57.7003 97.208ZM57.6523 90.456C56.5003 90.456 55.7963 91.08 55.6043 92.264H59.5723C59.5723 91.176 58.8203 90.456 57.6523 90.456ZM67.383 100.664V89.096H69.191L69.319 90.296C69.799 89.384 70.839 88.856 72.039 88.856C74.263 88.856 75.735 90.472 75.735 92.952C75.735 95.416 74.391 97.208 72.039 97.208C70.855 97.208 69.831 96.744 69.335 95.944V100.664H67.383ZM69.351 93.048C69.351 94.472 70.231 95.448 71.575 95.448C72.951 95.448 73.767 94.456 73.767 93.048C73.767 91.64 72.951 90.632 71.575 90.632C70.231 90.632 69.351 91.624 69.351 93.048ZM79.6413 97.208C77.9613 97.208 76.9373 96.232 76.9373 94.744C76.9373 93.288 77.9933 92.376 79.8653 92.232L82.2333 92.056V91.88C82.2333 90.808 81.5933 90.376 80.6013 90.376C79.4493 90.376 78.8093 90.856 78.8093 91.688H77.1453C77.1453 89.976 78.5533 88.856 80.6973 88.856C82.8253 88.856 84.1373 90.008 84.1373 92.2V97H82.4253L82.2813 95.832C81.9453 96.648 80.8733 97.208 79.6413 97.208ZM80.2812 95.736C81.4813 95.736 82.2493 95.016 82.2493 93.8V93.384L80.6013 93.512C79.3853 93.624 78.9213 94.024 78.9213 94.664C78.9213 95.384 79.4013 95.736 80.2812 95.736ZM85.1481 100.664V99.032H86.3161C87.0841 99.032 87.5641 98.856 87.9001 97.928L88.1241 97.336L84.9401 89.096H87.0041L89.0361 94.856L91.1801 89.096H93.1961L89.3241 98.76C88.7321 100.232 87.9001 100.84 86.6041 100.84C86.0601 100.84 85.5801 100.776 85.1481 100.664ZM96.2569 97H94.3049V89.096H96.0969L96.2569 90.024C96.6569 89.368 97.4569 88.856 98.5929 88.856C99.7929 88.856 100.625 89.448 101.041 90.36C101.441 89.448 102.369 88.856 103.569 88.856C105.489 88.856 106.545 90.008 106.545 91.832V97H104.609V92.344C104.609 91.208 104.001 90.616 103.073 90.616C102.129 90.616 101.409 91.224 101.409 92.52V97H99.4569V92.328C99.4569 91.224 98.8649 90.632 97.9369 90.632C97.0089 90.632 96.2569 91.24 96.2569 92.52V97ZM111.997 97.208C109.645 97.208 107.997 95.496 107.997 93.048C107.997 90.568 109.613 88.856 111.933 88.856C114.301 88.856 115.805 90.44 115.805 92.904V93.496L109.853 93.512C109.997 94.904 110.733 95.608 112.029 95.608C113.101 95.608 113.805 95.192 114.029 94.44H115.837C115.501 96.168 114.061 97.208 111.997 97.208ZM111.949 90.456C110.797 90.456 110.093 91.08 109.901 92.264H113.869C113.869 91.176 113.117 90.456 111.949 90.456ZM119.319 97H117.367V89.096H119.175L119.335 90.12C119.831 89.32 120.791 88.856 121.863 88.856C123.847 88.856 124.871 90.088 124.871 92.136V97H122.919V92.6C122.919 91.272 122.263 90.632 121.255 90.632C120.055 90.632 119.319 91.464 119.319 92.744V97ZM129.477 97H127.525V90.728H126.005V89.096H127.525V86.632H129.477V89.096H131.013V90.728H129.477V97Z" fill="#1D2939"/>
<path d="M513.728 142.132C511.328 142.132 509.696 140.344 509.696 137.704C509.696 135.064 511.352 133.264 513.776 133.264C515.624 133.264 517.076 134.38 517.424 136.084H516.5C516.14 134.848 515.084 134.092 513.74 134.092C511.856 134.092 510.596 135.532 510.596 137.704C510.596 139.864 511.856 141.304 513.74 141.304C515.096 141.304 516.176 140.572 516.548 139.42H517.472C517.076 141.04 515.576 142.132 513.728 142.132ZM520.337 142.144C519.101 142.144 518.369 141.448 518.369 140.428C518.369 139.36 519.185 138.688 520.541 138.58L522.461 138.424V138.232C522.461 137.092 521.777 136.732 520.925 136.732C519.917 136.732 519.317 137.188 519.317 137.968H518.561C518.561 136.792 519.521 136.036 520.949 136.036C522.293 136.036 523.277 136.708 523.277 138.244V142H522.581L522.473 140.98C522.113 141.712 521.321 142.144 520.337 142.144ZM520.529 141.472C521.753 141.472 522.461 140.62 522.461 139.36V139.048L520.745 139.18C519.653 139.276 519.209 139.756 519.209 140.404C519.209 141.112 519.737 141.472 520.529 141.472ZM527.974 136.12V136.864H527.518C526.45 136.864 525.766 137.584 525.766 138.688V142H524.938V136.192H525.718L525.778 137.092C526.006 136.468 526.618 136.06 527.434 136.06C527.614 136.06 527.77 136.072 527.974 136.12ZM530.641 142H529.825V136.888H528.661V136.192H529.825V134.356H530.641V136.192H531.805V136.888H530.641V142ZM537.544 142H536.728V136.888H535.564V136.192H536.728V134.356H537.544V136.192H538.708V136.888H537.544V142ZM539.319 139.096C539.319 137.32 540.567 136.036 542.271 136.036C543.975 136.036 545.223 137.32 545.223 139.096C545.223 140.86 543.975 142.144 542.271 142.144C540.567 142.144 539.319 140.86 539.319 139.096ZM540.159 139.084C540.159 140.452 541.023 141.4 542.271 141.4C543.507 141.4 544.383 140.452 544.383 139.084C544.383 137.74 543.507 136.78 542.271 136.78C541.023 136.78 540.159 137.74 540.159 139.084ZM547.821 142H547.005V136.888H545.841V136.192H547.005V134.356H547.821V136.192H548.985V136.888H547.821V142ZM551.637 142.144C550.401 142.144 549.669 141.448 549.669 140.428C549.669 139.36 550.485 138.688 551.841 138.58L553.761 138.424V138.232C553.761 137.092 553.077 136.732 552.225 136.732C551.217 136.732 550.617 137.188 550.617 137.968H549.861C549.861 136.792 550.821 136.036 552.249 136.036C553.593 136.036 554.577 136.708 554.577 138.244V142H553.881L553.773 140.98C553.413 141.712 552.621 142.144 551.637 142.144ZM551.829 141.472C553.053 141.472 553.761 140.62 553.761 139.36V139.048L552.045 139.18C550.953 139.276 550.509 139.756 550.509 140.404C550.509 141.112 551.037 141.472 551.829 141.472ZM557.103 142H556.275V133.252H557.103V142Z" fill="#98A2B3"/>
<rect x="450" y="154" width="108" height="18" rx="9" fill="#EAECF0"/>
<path d="M23.044 198H22.168L25.324 189.408H26.392L29.584 198H28.684L27.844 195.72H23.884L23.044 198ZM25.744 190.62L24.148 194.964H27.568L25.96 190.62C25.924 190.5 25.864 190.356 25.852 190.272C25.84 190.344 25.792 190.5 25.744 190.62ZM29.9912 195.108C29.9912 193.284 31.1072 192.036 32.7992 192.036C34.1432 192.036 35.1272 192.816 35.3552 194.016H34.5272C34.3112 193.212 33.6152 192.768 32.8112 192.768C31.6352 192.768 30.8072 193.668 30.8072 195.096C30.8072 196.476 31.5752 197.4 32.7512 197.4C33.6152 197.4 34.3112 196.92 34.5392 196.176H35.3792C35.1032 197.364 34.0712 198.144 32.7512 198.144C31.1072 198.144 29.9912 196.932 29.9912 195.108ZM36.2255 195.108C36.2255 193.284 37.3415 192.036 39.0335 192.036C40.3775 192.036 41.3615 192.816 41.5895 194.016H40.7615C40.5455 193.212 39.8495 192.768 39.0455 192.768C37.8695 192.768 37.0415 193.668 37.0415 195.096C37.0415 196.476 37.8095 197.4 38.9855 197.4C39.8495 197.4 40.5455 196.92 40.7735 196.176H41.6135C41.3375 197.364 40.3055 198.144 38.9855 198.144C37.3415 198.144 36.2255 196.932 36.2255 195.108ZM42.4599 195.096C42.4599 193.32 43.7079 192.036 45.4119 192.036C47.1159 192.036 48.3639 193.32 48.3639 195.096C48.3639 196.86 47.1159 198.144 45.4119 198.144C43.7079 198.144 42.4599 196.86 42.4599 195.096ZM43.2999 195.084C43.2999 196.452 44.1639 197.4 45.4119 197.4C46.6479 197.4 47.5239 196.452 47.5239 195.084C47.5239 193.74 46.6479 192.78 45.4119 192.78C44.1639 192.78 43.2999 193.74 43.2999 195.084ZM53.6276 192.192H54.4556V198H53.7356L53.6276 197.016C53.3036 197.688 52.4996 198.144 51.5876 198.144C50.2196 198.144 49.4756 197.208 49.4756 195.792V192.18H50.3156V195.528C50.3156 196.908 50.9276 197.4 51.8516 197.4C52.9676 197.4 53.6276 196.656 53.6276 195.276V192.192ZM57.0084 198H56.1804V192.192H56.9004L57.0204 193.2C57.4044 192.456 58.1724 192.036 59.0124 192.036C60.6084 192.036 61.2684 192.984 61.2684 194.448V198H60.4404V194.628C60.4404 193.272 59.8284 192.792 58.8684 192.792C57.6804 192.792 57.0084 193.656 57.0084 194.964V198ZM64.2507 198H63.4347V192.888H62.2707V192.192H63.4347V190.356H64.2507V192.192H65.4147V192.888H64.2507V198ZM70.649 198H69.821V192.192H70.541L70.661 193.2C71.045 192.456 71.813 192.036 72.653 192.036C74.249 192.036 74.909 192.984 74.909 194.448V198H74.081V194.628C74.081 193.272 73.469 192.792 72.509 192.792C71.321 192.792 70.649 193.656 70.649 194.964V198ZM78.2273 198.144C76.9913 198.144 76.2593 197.448 76.2593 196.428C76.2593 195.36 77.0753 194.688 78.4313 194.58L80.3513 194.424V194.232C80.3513 193.092 79.6673 192.732 78.8153 192.732C77.8073 192.732 77.2073 193.188 77.2073 193.968H76.4513C76.4513 192.792 77.4113 192.036 78.8393 192.036C80.1833 192.036 81.1673 192.708 81.1673 194.244V198H80.4713L80.3633 196.98C80.0033 197.712 79.2113 198.144 78.2273 198.144ZM78.4193 197.472C79.6433 197.472 80.3513 196.62 80.3513 195.36V195.048L78.6353 195.18C77.5433 195.276 77.0993 195.756 77.0993 196.404C77.0993 197.112 77.6273 197.472 78.4193 197.472ZM83.6568 198H82.8288V192.192H83.5488L83.6448 193.02C83.9328 192.408 84.5808 192.036 85.3968 192.036C86.3088 192.036 86.9928 192.516 87.2688 193.272C87.5328 192.516 88.2408 192.036 89.1768 192.036C90.4368 192.036 91.2648 192.852 91.2648 194.196V198H90.4608V194.364C90.4608 193.368 89.9088 192.78 89.0208 192.78C88.0488 192.78 87.4728 193.512 87.4728 194.412V198H86.6568V194.352C86.6568 193.368 86.0928 192.792 85.2168 192.792C84.2448 192.792 83.6568 193.512 83.6568 194.4V198ZM95.3664 198.144C93.6624 198.144 92.5224 196.92 92.5224 195.096C92.5224 193.284 93.6504 192.036 95.3064 192.036C96.8784 192.036 97.9464 193.152 97.9464 194.796V195.204H93.3264C93.3864 196.62 94.1304 197.436 95.3784 197.436C96.3264 197.436 96.9384 197.028 97.1544 196.26H97.9464C97.6344 197.484 96.7344 198.144 95.3664 198.144ZM95.3064 192.744C94.2144 192.744 93.4944 193.464 93.3504 194.604H97.1184C97.1184 193.488 96.3984 192.744 95.3064 192.744Z" fill="#98A2B3"/>
<rect x="22" y="210" width="536" height="18" rx="9" fill="#EAECF0"/>
<path d="M26.548 258.132C24.148 258.132 22.516 256.344 22.516 253.704C22.516 251.064 24.172 249.264 26.596 249.264C28.444 249.264 29.896 250.38 30.244 252.084H29.32C28.96 250.848 27.904 250.092 26.56 250.092C24.676 250.092 23.416 251.532 23.416 253.704C23.416 255.864 24.676 257.304 26.56 257.304C27.916 257.304 28.996 256.572 29.368 255.42H30.292C29.896 257.04 28.396 258.132 26.548 258.132ZM33.157 258.144C31.921 258.144 31.189 257.448 31.189 256.428C31.189 255.36 32.005 254.688 33.361 254.58L35.281 254.424V254.232C35.281 253.092 34.597 252.732 33.745 252.732C32.737 252.732 32.137 253.188 32.137 253.968H31.381C31.381 252.792 32.341 252.036 33.769 252.036C35.113 252.036 36.097 252.708 36.097 254.244V258H35.401L35.293 256.98C34.933 257.712 34.141 258.144 33.157 258.144ZM33.349 257.472C34.573 257.472 35.281 256.62 35.281 255.36V255.048L33.565 255.18C32.473 255.276 32.029 255.756 32.029 256.404C32.029 257.112 32.557 257.472 33.349 257.472ZM40.7945 252.12V252.864H40.3385C39.2705 252.864 38.5865 253.584 38.5865 254.688V258H37.7585V252.192H38.5385L38.5985 253.092C38.8265 252.468 39.4385 252.06 40.2545 252.06C40.4345 252.06 40.5905 252.072 40.7945 252.12ZM43.9526 258.144C42.2606 258.144 41.2646 256.848 41.2646 255.108C41.2646 253.356 42.2606 252.036 43.9886 252.036C44.9486 252.036 45.7166 252.456 46.1246 253.296V249.252H46.9526V258H46.2326L46.1486 256.812C45.7406 257.712 44.9246 258.144 43.9526 258.144ZM44.0966 257.388C45.3686 257.388 46.1126 256.428 46.1126 255.084C46.1126 253.752 45.3686 252.78 44.0966 252.78C42.8366 252.78 42.1046 253.752 42.1046 255.084C42.1046 256.428 42.8366 257.388 44.0966 257.388ZM52.8365 258H52.0085V252.192H52.7285L52.8485 253.2C53.2325 252.456 54.0005 252.036 54.8405 252.036C56.4365 252.036 57.0965 252.984 57.0965 254.448V258H56.2685V254.628C56.2685 253.272 55.6565 252.792 54.6965 252.792C53.5085 252.792 52.8365 253.656 52.8365 254.964V258ZM62.8268 252.192H63.6548V258H62.9348L62.8268 257.016C62.5028 257.688 61.6988 258.144 60.7868 258.144C59.4188 258.144 58.6748 257.208 58.6748 255.792V252.18H59.5148V255.528C59.5148 256.908 60.1268 257.4 61.0508 257.4C62.1668 257.4 62.8268 256.656 62.8268 255.276V252.192ZM66.2076 258H65.3796V252.192H66.0996L66.1956 253.02C66.4836 252.408 67.1316 252.036 67.9476 252.036C68.8596 252.036 69.5436 252.516 69.8196 253.272C70.0836 252.516 70.7916 252.036 71.7276 252.036C72.9876 252.036 73.8156 252.852 73.8156 254.196V258H73.0116V254.364C73.0116 253.368 72.4596 252.78 71.5716 252.78C70.5996 252.78 70.0236 253.512 70.0236 254.412V258H69.2076V254.352C69.2076 253.368 68.6436 252.792 67.7676 252.792C66.7956 252.792 66.2076 253.512 66.2076 254.4V258ZM76.2012 258H75.4812V249.252H76.3092V253.32C76.7172 252.468 77.5092 252.036 78.4932 252.036C80.1852 252.036 81.1692 253.356 81.1692 255.108C81.1692 256.848 80.1612 258.144 78.4692 258.144C77.4972 258.144 76.6932 257.712 76.2852 256.812L76.2012 258ZM76.3212 255.084C76.3212 256.428 77.0652 257.388 78.3372 257.388C79.5972 257.388 80.3292 256.428 80.3292 255.084C80.3292 253.752 79.5972 252.78 78.3372 252.78C77.0652 252.78 76.3212 253.752 76.3212 255.084ZM84.925 258.144C83.221 258.144 82.081 256.92 82.081 255.096C82.081 253.284 83.209 252.036 84.865 252.036C86.437 252.036 87.505 253.152 87.505 254.796V255.204H82.885C82.945 256.62 83.689 257.436 84.937 257.436C85.885 257.436 86.497 257.028 86.713 256.26H87.505C87.193 257.484 86.293 258.144 84.925 258.144ZM84.865 252.744C83.773 252.744 83.053 253.464 82.909 254.604H86.677C86.677 253.488 85.957 252.744 84.865 252.744ZM91.8648 252.12V252.864H91.4088C90.3408 252.864 89.6568 253.584 89.6568 254.688V258H88.8288V252.192H89.6088L89.6688 253.092C89.8968 252.468 90.5088 252.06 91.3248 252.06C91.5048 252.06 91.6608 252.072 91.8648 252.12Z" fill="#98A2B3"/>
<rect x="22" y="270" width="536" height="18" rx="9" fill="#EAECF0"/>
<path d="M28.192 318H23.044V309.408H28.18V310.2H23.908V313.296H27.784V314.076H23.908V317.208H28.192V318ZM29.9943 318H29.0223L31.0983 315.096L29.0343 312.192H30.0063L31.6503 314.52L33.2823 312.192H34.2423L32.1783 315.108L34.2303 318H33.2463L31.6143 315.672L29.9943 318ZM35.2273 320.532V312.192H35.9473L36.0313 313.368C36.4393 312.468 37.2553 312.036 38.2273 312.036C39.9073 312.036 40.9153 313.32 40.9153 315.072C40.9153 316.824 39.9433 318.144 38.2273 318.144C37.2433 318.144 36.4633 317.724 36.0553 316.884V320.532H35.2273ZM36.0673 315.096C36.0673 316.428 36.8113 317.4 38.0833 317.4C39.3433 317.4 40.0753 316.428 40.0753 315.096C40.0753 313.752 39.3433 312.792 38.0833 312.792C36.8113 312.792 36.0673 313.752 36.0673 315.096ZM42.6431 310.596C42.3071 310.596 42.0311 310.32 42.0311 309.984C42.0311 309.648 42.3071 309.36 42.6431 309.36C42.9791 309.36 43.2671 309.648 43.2671 309.984C43.2671 310.32 42.9791 310.596 42.6431 310.596ZM42.2351 318V312.192H43.0631V318H42.2351ZM47.8258 312.12V312.864H47.3698C46.3018 312.864 45.6178 313.584 45.6178 314.688V318H44.7898V312.192H45.5698L45.6298 313.092C45.8578 312.468 46.4698 312.06 47.2858 312.06C47.4658 312.06 47.6218 312.072 47.8258 312.12ZM48.5143 320.532V319.848H49.1503C49.6543 319.848 50.1583 319.812 50.4463 319.032L50.6983 318.348L48.3463 312.192H49.2223L51.0943 317.256L52.9303 312.192H53.7823L51.1183 319.332C50.7823 320.244 50.2183 320.616 49.3903 320.616C49.0423 320.616 48.7783 320.592 48.5143 320.532ZM60.3588 318.144C58.6668 318.144 57.6708 316.848 57.6708 315.108C57.6708 313.356 58.6668 312.036 60.3948 312.036C61.3548 312.036 62.1228 312.456 62.5308 313.296V309.252H63.3588V318H62.6388L62.5548 316.812C62.1468 317.712 61.3308 318.144 60.3588 318.144ZM60.5028 317.388C61.7748 317.388 62.5188 316.428 62.5188 315.084C62.5188 313.752 61.7748 312.78 60.5028 312.78C59.2428 312.78 58.5108 313.752 58.5108 315.084C58.5108 316.428 59.2428 317.388 60.5028 317.388ZM66.7547 318.144C65.5187 318.144 64.7867 317.448 64.7867 316.428C64.7867 315.36 65.6027 314.688 66.9587 314.58L68.8787 314.424V314.232C68.8787 313.092 68.1947 312.732 67.3427 312.732C66.3347 312.732 65.7347 313.188 65.7347 313.968H64.9787C64.9787 312.792 65.9387 312.036 67.3667 312.036C68.7107 312.036 69.6947 312.708 69.6947 314.244V318H68.9987L68.8907 316.98C68.5307 317.712 67.7387 318.144 66.7547 318.144ZM66.9467 317.472C68.1707 317.472 68.8787 316.62 68.8787 315.36V315.048L67.1627 315.18C66.0707 315.276 65.6267 315.756 65.6267 316.404C65.6267 317.112 66.1547 317.472 66.9467 317.472ZM72.5827 318H71.7667V312.888H70.6027V312.192H71.7667V310.356H72.5827V312.192H73.7467V312.888H72.5827V318ZM77.2023 318.144C75.4983 318.144 74.3583 316.92 74.3583 315.096C74.3583 313.284 75.4863 312.036 77.1423 312.036C78.7143 312.036 79.7823 313.152 79.7823 314.796V315.204H75.1623C75.2223 316.62 75.9663 317.436 77.2143 317.436C78.1623 317.436 78.7743 317.028 78.9903 316.26H79.7823C79.4703 317.484 78.5703 318.144 77.2023 318.144ZM77.1423 312.744C76.0503 312.744 75.3303 313.464 75.1863 314.604H78.9543C78.9543 313.488 78.2343 312.744 77.1423 312.744Z" fill="#98A2B3"/>
<rect x="22" y="330" width="536" height="18" rx="9" fill="#EAECF0"/>
</g>
<defs>
<filter id="filter0_d_1_559" x="0" y="0" width="580" height="371" filterUnits="userSpaceOnUse" color-interpolation-filters="sRGB">
<feFlood flood-opacity="0" result="BackgroundImageFix"/>
<feColorMatrix in="SourceAlpha" type="matrix" values="0 0 0 0 0 0 0 0 0 0 0 0 0 0 0 0 0 0 127 0" result="hardAlpha"/>
<feOffset dy="1"/>
<feGaussianBlur stdDeviation="1"/>
<feColorMatrix type="matrix" values="0 0 0 0 0.0627451 0 0 0 0 0.0941176 0 0 0 0 0.156863 0 0 0 0.05 0"/>
<feBlend mode="normal" in2="BackgroundImageFix" result="effect1_dropShadow_1_559"/>
<feBlend mode="normal" in="SourceGraphic" in2="effect1_dropShadow_1_559" result="shape"/>
</filter>
<clipPath id="clip0_1_559">
<rect x="82" y="21" width="20" height="20" rx="10" fill="white"/>
</clipPath>
<clipPath id="clip1_1_559">
<rect x="205.333" y="21" width="20" height="20" rx="10" fill="white"/>
</clipPath>
<clipPath id="clip2_1_559">
<rect x="326.667" y="21" width="20" height="20" rx="10" fill="white"/>
</clipPath>
<clipPath id="clip3_1_559">
<rect x="446" y="21" width="20" height="20" rx="10" fill="white"/>
</clipPath>
</defs>
</svg>
