<svg width="580" height="370" viewBox="0 0 580 370" fill="none" xmlns="http://www.w3.org/2000/svg">
<g filter="url(#filter0_d_1_875)">
<rect x="2" y="1" width="576" height="366" rx="20" fill="#FCFCFD"/>
<rect x="2.1" y="1.1" width="575.8" height="365.8" rx="19.9" stroke="#D0D5DD" stroke-width="0.2"/>
<g filter="url(#filter1_f_1_875)">
<rect x="212" y="124" width="120" height="120" rx="60" fill="#717BBC"/>
</g>
<path d="M258.629 101.926C266.645 96.2684 277.355 96.2684 285.371 101.926C290.041 105.221 295.763 106.738 301.453 106.209C311.19 105.304 320.495 110.632 324.59 119.51C326.981 124.693 331.177 128.859 336.368 131.232C345.249 135.291 350.638 144.549 349.726 154.269C349.194 159.944 350.72 165.621 354.027 170.264C359.702 178.231 359.702 188.921 354.027 196.888C350.72 201.531 349.194 207.208 349.726 212.883C350.638 222.603 345.249 231.861 336.368 235.92C331.177 238.293 326.981 242.459 324.59 247.642C320.495 256.52 311.19 261.848 301.453 260.943C295.763 260.414 290.041 261.931 285.371 265.227C277.355 270.884 266.645 270.884 258.629 265.227C253.959 261.931 248.237 260.414 242.547 260.943C232.81 261.848 223.505 256.52 219.41 247.642C217.019 242.459 212.823 238.293 207.632 235.92C198.751 231.861 193.362 222.603 194.274 212.883C194.806 207.208 193.28 201.531 189.973 196.888C184.298 188.921 184.298 178.231 189.973 170.264C193.28 165.621 194.806 159.944 194.274 154.269C193.362 144.549 198.751 135.291 207.632 131.232C212.823 128.859 217.019 124.693 219.41 119.51C223.505 110.632 232.81 105.304 242.547 106.209C248.237 106.738 253.959 105.221 258.629 101.926Z" fill="#FCFCFD" stroke="#B3B8DB" stroke-width="0.8"/>
<g clip-path="url(#clip0_1_875)">
<path d="M279.667 149.5C283.901 149.5 287.334 152.933 287.334 157.167H298.834C303.068 157.167 306.5 160.599 306.5 164.833V172.5C306.5 176.086 304.039 179.096 300.714 179.935L310.023 201.657C310.323 202.355 310.361 203.147 310.353 203.929L310.334 205.083C310.334 212.493 304.327 218.5 296.917 218.5C291.565 218.5 286.944 215.366 284.791 210.833H263.042C260.889 215.366 256.269 218.5 250.917 218.5C244.157 218.5 238.565 213.501 237.636 206.998L237.5 207C235.383 207 233.667 205.284 233.667 203.167V172.5C233.667 168.266 237.099 164.833 241.334 164.833H256.667C260.901 164.833 264.334 168.266 264.334 172.5V180.167C264.334 184.401 267.766 187.833 272 187.833C276.234 187.833 279.667 184.401 279.667 180.167V157.167H272C269.883 157.167 268.167 155.451 268.167 153.333C268.167 151.216 269.883 149.5 272 149.5H279.667ZM250.917 199.333C247.741 199.333 245.167 201.908 245.167 205.083C245.167 208.259 247.741 210.833 250.917 210.833C254.092 210.833 256.667 208.259 256.667 205.083C256.667 201.908 254.092 199.333 250.917 199.333ZM296.917 199.333C293.741 199.333 291.167 201.908 291.167 205.083C291.167 208.259 293.741 210.833 296.917 210.833C300.092 210.833 302.667 208.259 302.667 205.083C302.667 202.031 299.978 199.333 296.917 199.333ZM256.667 172.5H241.334V180.167H256.667V172.5ZM298.834 164.833H287.334V172.5H298.834V164.833Z" fill="#4E5BA6"/>
</g>
<g filter="url(#filter2_dd_1_875)">
<rect x="276" y="230" width="135.676" height="32" rx="16" fill="white"/>
<rect x="284" y="236" width="20" height="20" rx="10" fill="#EAECF5"/>
<path fill-rule="evenodd" clip-rule="evenodd" d="M298.247 242.158L292.28 247.917L290.697 246.225C290.405 245.95 289.947 245.933 289.614 246.167C289.289 246.408 289.197 246.833 289.397 247.175L291.272 250.225C291.455 250.508 291.772 250.683 292.13 250.683C292.472 250.683 292.797 250.508 292.98 250.225C293.28 249.833 299.005 243.008 299.005 243.008C299.755 242.242 298.847 241.567 298.247 242.15V242.158Z" fill="#4E5BA6"/>
<path d="M310.669 242.408V251H309.805V242.408H310.669ZM313.406 251H312.578V245.192H313.298L313.418 246.2C313.802 245.456 314.57 245.036 315.41 245.036C317.006 245.036 317.666 245.984 317.666 247.448V251H316.838V247.628C316.838 246.272 316.226 245.792 315.266 245.792C314.078 245.792 313.406 246.656 313.406 247.964V251ZM319.22 248.216V247.472H322.7V248.216H319.22ZM323.816 249.368H324.608C324.608 250.04 325.112 250.46 325.928 250.46C326.828 250.46 327.356 250.076 327.356 249.452C327.356 248.972 327.116 248.696 326.432 248.528L325.436 248.276C324.428 248.024 323.936 247.496 323.936 246.704C323.936 245.684 324.788 245.036 326.036 245.036C327.26 245.036 328.052 245.708 328.088 246.788H327.284C327.26 246.116 326.792 245.72 326.012 245.72C325.196 245.72 324.74 246.068 324.74 246.692C324.74 247.136 325.052 247.448 325.688 247.604L326.684 247.856C327.692 248.108 328.148 248.576 328.148 249.416C328.148 250.46 327.26 251.144 325.94 251.144C324.632 251.144 323.816 250.448 323.816 249.368ZM330.843 251H330.027V245.888H328.863V245.192H330.027V243.356H330.843V245.192H332.007V245.888H330.843V251ZM332.619 248.096C332.619 246.32 333.867 245.036 335.571 245.036C337.275 245.036 338.523 246.32 338.523 248.096C338.523 249.86 337.275 251.144 335.571 251.144C333.867 251.144 332.619 249.86 332.619 248.096ZM333.459 248.084C333.459 249.452 334.323 250.4 335.571 250.4C336.807 250.4 337.683 249.452 337.683 248.084C337.683 246.74 336.807 245.78 335.571 245.78C334.323 245.78 333.459 246.74 333.459 248.084ZM342.883 245.12V245.864H342.427C341.359 245.864 340.675 246.584 340.675 247.688V251H339.847V245.192H340.627L340.687 246.092C340.915 245.468 341.527 245.06 342.343 245.06C342.523 245.06 342.679 245.072 342.883 245.12ZM346.197 251.144C344.493 251.144 343.353 249.92 343.353 248.096C343.353 246.284 344.481 245.036 346.137 245.036C347.709 245.036 348.777 246.152 348.777 247.796V248.204H344.157C344.217 249.62 344.961 250.436 346.209 250.436C347.157 250.436 347.769 250.028 347.985 249.26H348.777C348.465 250.484 347.565 251.144 346.197 251.144ZM346.137 245.744C345.045 245.744 344.325 246.464 344.181 247.604H347.949C347.949 246.488 347.229 245.744 346.137 245.744ZM353.429 253.532V245.192H354.149L354.233 246.368C354.641 245.468 355.457 245.036 356.429 245.036C358.109 245.036 359.117 246.32 359.117 248.072C359.117 249.824 358.145 251.144 356.429 251.144C355.445 251.144 354.665 250.724 354.257 249.884V253.532H353.429ZM354.269 248.096C354.269 249.428 355.013 250.4 356.285 250.4C357.545 250.4 358.277 249.428 358.277 248.096C358.277 246.752 357.545 245.792 356.285 245.792C355.013 245.792 354.269 246.752 354.269 248.096ZM360.845 243.596C360.509 243.596 360.233 243.32 360.233 242.984C360.233 242.648 360.509 242.36 360.845 242.36C361.181 242.36 361.469 242.648 361.469 242.984C361.469 243.32 361.181 243.596 360.845 243.596ZM360.437 251V245.192H361.265V251H360.437ZM362.584 248.108C362.584 246.284 363.7 245.036 365.392 245.036C366.736 245.036 367.72 245.816 367.948 247.016H367.12C366.904 246.212 366.208 245.768 365.404 245.768C364.228 245.768 363.4 246.668 363.4 248.096C363.4 249.476 364.168 250.4 365.344 250.4C366.208 250.4 366.904 249.92 367.132 249.176H367.972C367.696 250.364 366.664 251.144 365.344 251.144C363.7 251.144 362.584 249.932 362.584 248.108ZM370.09 251H369.262V242.252H370.09V248.192L372.97 245.192H374.014L371.782 247.508L374.026 251H373.066L371.218 248.096L370.09 249.26V251ZM379.095 245.192H379.923V251H379.203L379.095 250.016C378.771 250.688 377.967 251.144 377.055 251.144C375.687 251.144 374.943 250.208 374.943 248.792V245.18H375.783V248.528C375.783 249.908 376.395 250.4 377.319 250.4C378.435 250.4 379.095 249.656 379.095 248.276V245.192ZM381.648 253.532V245.192H382.368L382.452 246.368C382.86 245.468 383.676 245.036 384.648 245.036C386.328 245.036 387.336 246.32 387.336 248.072C387.336 249.824 386.364 251.144 384.648 251.144C383.664 251.144 382.884 250.724 382.476 249.884V253.532H381.648ZM382.488 248.096C382.488 249.428 383.232 250.4 384.504 250.4C385.764 250.4 386.496 249.428 386.496 248.096C386.496 246.752 385.764 245.792 384.504 245.792C383.232 245.792 382.488 246.752 382.488 248.096Z" fill="#475467"/>
</g>
<g filter="url(#filter3_dd_1_875)">
<rect x="296.232" y="110" width="135.676" height="32" rx="16" fill="white"/>
<rect x="304.232" y="116" width="20" height="20" rx="10" fill="#EAECF5"/>
<path fill-rule="evenodd" clip-rule="evenodd" d="M318.479 122.158L312.513 127.917L310.929 126.225C310.638 125.95 310.179 125.933 309.846 126.167C309.521 126.408 309.429 126.833 309.629 127.175L311.504 130.225C311.688 130.508 312.004 130.683 312.363 130.683C312.704 130.683 313.029 130.508 313.213 130.225C313.513 129.833 319.238 123.008 319.238 123.008C319.988 122.242 319.079 121.567 318.479 122.15V122.158Z" fill="#4E5BA6"/>
<path d="M333.637 123.08C331.657 123.08 330.409 124.544 330.409 126.74C330.409 128.972 331.729 130.328 333.661 130.328C335.101 130.328 336.505 129.632 336.505 127.568V127.124H333.397V126.356H337.321V131.012H336.637L336.553 129.644C336.097 130.496 335.017 131.144 333.625 131.144C331.189 131.144 329.509 129.392 329.509 126.74C329.509 124.112 331.189 122.264 333.649 122.264C335.461 122.264 336.865 123.296 337.201 124.856H336.265C335.905 123.68 334.897 123.08 333.637 123.08ZM339.721 131H338.893V122.252H339.721V131ZM341.074 128.096C341.074 126.32 342.322 125.036 344.026 125.036C345.73 125.036 346.978 126.32 346.978 128.096C346.978 129.86 345.73 131.144 344.026 131.144C342.322 131.144 341.074 129.86 341.074 128.096ZM341.914 128.084C341.914 129.452 342.778 130.4 344.026 130.4C345.262 130.4 346.138 129.452 346.138 128.084C346.138 126.74 345.262 125.78 344.026 125.78C342.778 125.78 341.914 126.74 341.914 128.084ZM349.022 131H348.302V122.252H349.13V126.32C349.538 125.468 350.33 125.036 351.314 125.036C353.006 125.036 353.99 126.356 353.99 128.108C353.99 129.848 352.982 131.144 351.29 131.144C350.318 131.144 349.514 130.712 349.106 129.812L349.022 131ZM349.142 128.084C349.142 129.428 349.886 130.388 351.158 130.388C352.418 130.388 353.15 129.428 353.15 128.084C353.15 126.752 352.418 125.78 351.158 125.78C349.886 125.78 349.142 126.752 349.142 128.084ZM356.978 131.144C355.742 131.144 355.01 130.448 355.01 129.428C355.01 128.36 355.826 127.688 357.182 127.58L359.102 127.424V127.232C359.102 126.092 358.418 125.732 357.566 125.732C356.558 125.732 355.958 126.188 355.958 126.968H355.202C355.202 125.792 356.162 125.036 357.59 125.036C358.934 125.036 359.918 125.708 359.918 127.244V131H359.222L359.114 129.98C358.754 130.712 357.962 131.144 356.978 131.144ZM357.17 130.472C358.394 130.472 359.102 129.62 359.102 128.36V128.048L357.386 128.18C356.294 128.276 355.85 128.756 355.85 129.404C355.85 130.112 356.378 130.472 357.17 130.472ZM362.444 131H361.616V122.252H362.444V131ZM367.041 129.368H367.833C367.833 130.04 368.337 130.46 369.153 130.46C370.053 130.46 370.581 130.076 370.581 129.452C370.581 128.972 370.341 128.696 369.657 128.528L368.661 128.276C367.653 128.024 367.161 127.496 367.161 126.704C367.161 125.684 368.013 125.036 369.261 125.036C370.485 125.036 371.277 125.708 371.313 126.788H370.509C370.485 126.116 370.017 125.72 369.237 125.72C368.421 125.72 367.965 126.068 367.965 126.692C367.965 127.136 368.277 127.448 368.913 127.604L369.909 127.856C370.917 128.108 371.373 128.576 371.373 129.416C371.373 130.46 370.485 131.144 369.165 131.144C367.857 131.144 367.041 130.448 367.041 129.368ZM373.564 130.988H372.736V122.252H373.564V126.2C373.936 125.504 374.644 125.036 375.616 125.036C377.14 125.036 377.824 125.984 377.824 127.448V131H376.996V127.628C376.996 126.272 376.36 125.792 375.46 125.792C374.212 125.792 373.564 126.716 373.564 127.832V130.988ZM379.882 123.596C379.546 123.596 379.27 123.32 379.27 122.984C379.27 122.648 379.546 122.36 379.882 122.36C380.218 122.36 380.506 122.648 380.506 122.984C380.506 123.32 380.218 123.596 379.882 123.596ZM379.474 131V125.192H380.302V131H379.474ZM382.029 133.532V125.192H382.749L382.833 126.368C383.241 125.468 384.057 125.036 385.029 125.036C386.709 125.036 387.717 126.32 387.717 128.072C387.717 129.824 386.745 131.144 385.029 131.144C384.045 131.144 383.265 130.724 382.857 129.884V133.532H382.029ZM382.869 128.096C382.869 129.428 383.613 130.4 384.885 130.4C386.145 130.4 386.877 129.428 386.877 128.096C386.877 126.752 386.145 125.792 384.885 125.792C383.613 125.792 382.869 126.752 382.869 128.096ZM389.037 133.532V125.192H389.757L389.841 126.368C390.249 125.468 391.065 125.036 392.037 125.036C393.717 125.036 394.725 126.32 394.725 128.072C394.725 129.824 393.753 131.144 392.037 131.144C391.053 131.144 390.273 130.724 389.865 129.884V133.532H389.037ZM389.877 128.096C389.877 129.428 390.621 130.4 391.893 130.4C393.153 130.4 393.885 129.428 393.885 128.096C393.885 126.752 393.153 125.792 391.893 125.792C390.621 125.792 389.877 126.752 389.877 128.096ZM396.452 123.596C396.116 123.596 395.84 123.32 395.84 122.984C395.84 122.648 396.116 122.36 396.452 122.36C396.788 122.36 397.076 122.648 397.076 122.984C397.076 123.32 396.788 123.596 396.452 123.596ZM396.044 131V125.192H396.872V131H396.044ZM399.427 131H398.599V125.192H399.319L399.439 126.2C399.823 125.456 400.591 125.036 401.431 125.036C403.027 125.036 403.687 125.984 403.687 127.448V131H402.859V127.628C402.859 126.272 402.247 125.792 401.287 125.792C400.099 125.792 399.427 126.656 399.427 127.964V131ZM404.941 127.928C404.941 126.344 405.961 125.036 407.665 125.036C408.673 125.036 409.441 125.504 409.813 126.356L409.897 125.192H410.617V130.82C410.617 132.548 409.513 133.676 407.809 133.676C406.321 133.676 405.277 132.836 405.049 131.432H405.877C406.057 132.368 406.777 132.92 407.821 132.92C409.009 132.92 409.801 132.116 409.801 130.904V129.524C409.405 130.34 408.601 130.82 407.605 130.82C405.949 130.82 404.941 129.512 404.941 127.928ZM405.769 127.916C405.769 129.104 406.501 130.076 407.725 130.076C408.985 130.076 409.729 129.164 409.729 127.916C409.729 126.68 409.009 125.768 407.737 125.768C406.489 125.768 405.769 126.74 405.769 127.916Z" fill="#475467"/>
</g>
<g filter="url(#filter4_dd_1_875)">
<rect x="309.324" y="170" width="135.676" height="32" rx="16" fill="white"/>
<rect x="317.324" y="176" width="20" height="20" rx="10" fill="#EAECF5"/>
<path fill-rule="evenodd" clip-rule="evenodd" d="M331.571 182.158L325.604 187.917L324.021 186.225C323.729 185.95 323.271 185.933 322.938 186.167C322.613 186.408 322.521 186.833 322.721 187.175L324.596 190.225C324.779 190.508 325.096 190.683 325.454 190.683C325.796 190.683 326.121 190.508 326.304 190.225C326.604 189.833 332.329 183.008 332.329 183.008C333.079 182.242 332.171 181.567 331.571 182.15V182.158Z" fill="#4E5BA6"/>
<path d="M348.277 191H343.129V182.408H348.265V183.2H343.993V186.296H347.869V187.076H343.993V190.208H348.277V191ZM350.079 191H349.107L351.183 188.096L349.119 185.192H350.091L351.735 187.52L353.367 185.192H354.327L352.263 188.108L354.315 191H353.331L351.699 188.672L350.079 191ZM355.312 193.532V185.192H356.032L356.116 186.368C356.524 185.468 357.34 185.036 358.312 185.036C359.992 185.036 361 186.32 361 188.072C361 189.824 360.028 191.144 358.312 191.144C357.328 191.144 356.548 190.724 356.14 189.884V193.532H355.312ZM356.152 188.096C356.152 189.428 356.896 190.4 358.168 190.4C359.428 190.4 360.16 189.428 360.16 188.096C360.16 186.752 359.428 185.792 358.168 185.792C356.896 185.792 356.152 186.752 356.152 188.096ZM365.356 185.12V185.864H364.9C363.832 185.864 363.148 186.584 363.148 187.688V191H362.32V185.192H363.1L363.16 186.092C363.388 185.468 364 185.06 364.816 185.06C364.996 185.06 365.152 185.072 365.356 185.12ZM368.67 191.144C366.966 191.144 365.826 189.92 365.826 188.096C365.826 186.284 366.954 185.036 368.61 185.036C370.182 185.036 371.25 186.152 371.25 187.796V188.204H366.63C366.69 189.62 367.434 190.436 368.682 190.436C369.63 190.436 370.242 190.028 370.458 189.26H371.25C370.938 190.484 370.038 191.144 368.67 191.144ZM368.61 185.744C367.518 185.744 366.798 186.464 366.654 187.604H370.422C370.422 186.488 369.702 185.744 368.61 185.744ZM372.082 189.368H372.874C372.874 190.04 373.378 190.46 374.194 190.46C375.094 190.46 375.622 190.076 375.622 189.452C375.622 188.972 375.382 188.696 374.698 188.528L373.702 188.276C372.694 188.024 372.202 187.496 372.202 186.704C372.202 185.684 373.054 185.036 374.302 185.036C375.526 185.036 376.318 185.708 376.354 186.788H375.55C375.526 186.116 375.058 185.72 374.278 185.72C373.462 185.72 373.006 186.068 373.006 186.692C373.006 187.136 373.318 187.448 373.954 187.604L374.95 187.856C375.958 188.108 376.414 188.576 376.414 189.416C376.414 190.46 375.526 191.144 374.206 191.144C372.898 191.144 372.082 190.448 372.082 189.368ZM377.285 189.368H378.077C378.077 190.04 378.581 190.46 379.397 190.46C380.297 190.46 380.825 190.076 380.825 189.452C380.825 188.972 380.585 188.696 379.901 188.528L378.905 188.276C377.897 188.024 377.405 187.496 377.405 186.704C377.405 185.684 378.257 185.036 379.505 185.036C380.729 185.036 381.521 185.708 381.557 186.788H380.753C380.729 186.116 380.261 185.72 379.481 185.72C378.665 185.72 378.209 186.068 378.209 186.692C378.209 187.136 378.521 187.448 379.157 187.604L380.153 187.856C381.161 188.108 381.617 188.576 381.617 189.416C381.617 190.46 380.729 191.144 379.409 191.144C378.101 191.144 377.285 190.448 377.285 189.368ZM388.588 191.144C386.896 191.144 385.9 189.848 385.9 188.108C385.9 186.356 386.896 185.036 388.624 185.036C389.584 185.036 390.352 185.456 390.76 186.296V182.252H391.588V191H390.868L390.784 189.812C390.376 190.712 389.56 191.144 388.588 191.144ZM388.732 190.388C390.004 190.388 390.748 189.428 390.748 188.084C390.748 186.752 390.004 185.78 388.732 185.78C387.472 185.78 386.74 186.752 386.74 188.084C386.74 189.428 387.472 190.388 388.732 190.388ZM395.752 191.144C394.048 191.144 392.908 189.92 392.908 188.096C392.908 186.284 394.036 185.036 395.692 185.036C397.264 185.036 398.332 186.152 398.332 187.796V188.204H393.712C393.772 189.62 394.516 190.436 395.764 190.436C396.712 190.436 397.324 190.028 397.54 189.26H398.332C398.02 190.484 397.12 191.144 395.752 191.144ZM395.692 185.744C394.6 185.744 393.88 186.464 393.736 187.604H397.504C397.504 186.488 396.784 185.744 395.692 185.744ZM400.52 191H399.692V182.252H400.52V191ZM402.689 183.596C402.353 183.596 402.077 183.32 402.077 182.984C402.077 182.648 402.353 182.36 402.689 182.36C403.025 182.36 403.313 182.648 403.313 182.984C403.313 183.32 403.025 183.596 402.689 183.596ZM402.281 191V185.192H403.109V191H402.281ZM406.455 191L404.079 185.192H404.967L406.467 188.936C406.623 189.356 406.779 189.752 406.887 190.136C406.995 189.74 407.151 189.356 407.319 188.936L408.843 185.192H409.695L407.283 191H406.455ZM412.849 191.144C411.145 191.144 410.005 189.92 410.005 188.096C410.005 186.284 411.133 185.036 412.789 185.036C414.361 185.036 415.429 186.152 415.429 187.796V188.204H410.809C410.869 189.62 411.613 190.436 412.861 190.436C413.809 190.436 414.421 190.028 414.637 189.26H415.429C415.117 190.484 414.217 191.144 412.849 191.144ZM412.789 185.744C411.697 185.744 410.977 186.464 410.833 187.604H414.601C414.601 186.488 413.881 185.744 412.789 185.744ZM419.789 185.12V185.864H419.333C418.265 185.864 417.581 186.584 417.581 187.688V191H416.753V185.192H417.533L417.593 186.092C417.821 185.468 418.433 185.06 419.249 185.06C419.429 185.06 419.585 185.072 419.789 185.12ZM420.478 193.532V192.848H421.114C421.618 192.848 422.122 192.812 422.41 192.032L422.662 191.348L420.31 185.192H421.186L423.058 190.256L424.894 185.192H425.746L423.082 192.332C422.746 193.244 422.182 193.616 421.354 193.616C421.006 193.616 420.742 193.592 420.478 193.532Z" fill="#475467"/>
</g>
</g>
<defs>
<filter id="filter0_d_1_875" x="0" y="0" width="580" height="370" filterUnits="userSpaceOnUse" color-interpolation-filters="sRGB">
<feFlood flood-opacity="0" result="BackgroundImageFix"/>
<feColorMatrix in="SourceAlpha" type="matrix" values="0 0 0 0 0 0 0 0 0 0 0 0 0 0 0 0 0 0 127 0" result="hardAlpha"/>
<feOffset dy="1"/>
<feGaussianBlur stdDeviation="1"/>
<feColorMatrix type="matrix" values="0 0 0 0 0.0627451 0 0 0 0 0.0941176 0 0 0 0 0.156863 0 0 0 0.05 0"/>
<feBlend mode="normal" in2="BackgroundImageFix" result="effect1_dropShadow_1_875"/>
<feBlend mode="normal" in="SourceGraphic" in2="effect1_dropShadow_1_875" result="shape"/>
</filter>
<filter id="filter1_f_1_875" x="112" y="24" width="320" height="320" filterUnits="userSpaceOnUse" color-interpolation-filters="sRGB">
<feFlood flood-opacity="0" result="BackgroundImageFix"/>
<feBlend mode="normal" in="SourceGraphic" in2="BackgroundImageFix" result="shape"/>
<feGaussianBlur stdDeviation="50" result="effect1_foregroundBlur_1_875"/>
</filter>
<filter id="filter2_dd_1_875" x="273" y="228" width="141.676" height="38" filterUnits="userSpaceOnUse" color-interpolation-filters="sRGB">
<feFlood flood-opacity="0" result="BackgroundImageFix"/>
<feColorMatrix in="SourceAlpha" type="matrix" values="0 0 0 0 0 0 0 0 0 0 0 0 0 0 0 0 0 0 127 0" result="hardAlpha"/>
<feOffset dy="1"/>
<feGaussianBlur stdDeviation="1"/>
<feColorMatrix type="matrix" values="0 0 0 0 0.0627451 0 0 0 0 0.0941176 0 0 0 0 0.156863 0 0 0 0.06 0"/>
<feBlend mode="normal" in2="BackgroundImageFix" result="effect1_dropShadow_1_875"/>
<feColorMatrix in="SourceAlpha" type="matrix" values="0 0 0 0 0 0 0 0 0 0 0 0 0 0 0 0 0 0 127 0" result="hardAlpha"/>
<feOffset dy="1"/>
<feGaussianBlur stdDeviation="1.5"/>
<feColorMatrix type="matrix" values="0 0 0 0 0.0627451 0 0 0 0 0.0941176 0 0 0 0 0.156863 0 0 0 0.1 0"/>
<feBlend mode="normal" in2="effect1_dropShadow_1_875" result="effect2_dropShadow_1_875"/>
<feBlend mode="normal" in="SourceGraphic" in2="effect2_dropShadow_1_875" result="shape"/>
</filter>
<filter id="filter3_dd_1_875" x="293.232" y="108" width="141.676" height="38" filterUnits="userSpaceOnUse" color-interpolation-filters="sRGB">
<feFlood flood-opacity="0" result="BackgroundImageFix"/>
<feColorMatrix in="SourceAlpha" type="matrix" values="0 0 0 0 0 0 0 0 0 0 0 0 0 0 0 0 0 0 127 0" result="hardAlpha"/>
<feOffset dy="1"/>
<feGaussianBlur stdDeviation="1"/>
<feColorMatrix type="matrix" values="0 0 0 0 0.0627451 0 0 0 0 0.0941176 0 0 0 0 0.156863 0 0 0 0.06 0"/>
<feBlend mode="normal" in2="BackgroundImageFix" result="effect1_dropShadow_1_875"/>
<feColorMatrix in="SourceAlpha" type="matrix" values="0 0 0 0 0 0 0 0 0 0 0 0 0 0 0 0 0 0 127 0" result="hardAlpha"/>
<feOffset dy="1"/>
<feGaussianBlur stdDeviation="1.5"/>
<feColorMatrix type="matrix" values="0 0 0 0 0.0627451 0 0 0 0 0.0941176 0 0 0 0 0.156863 0 0 0 0.1 0"/>
<feBlend mode="normal" in2="effect1_dropShadow_1_875" result="effect2_dropShadow_1_875"/>
<feBlend mode="normal" in="SourceGraphic" in2="effect2_dropShadow_1_875" result="shape"/>
</filter>
<filter id="filter4_dd_1_875" x="306.324" y="168" width="141.676" height="38" filterUnits="userSpaceOnUse" color-interpolation-filters="sRGB">
<feFlood flood-opacity="0" result="BackgroundImageFix"/>
<feColorMatrix in="SourceAlpha" type="matrix" values="0 0 0 0 0 0 0 0 0 0 0 0 0 0 0 0 0 0 127 0" result="hardAlpha"/>
<feOffset dy="1"/>
<feGaussianBlur stdDeviation="1"/>
<feColorMatrix type="matrix" values="0 0 0 0 0.0627451 0 0 0 0 0.0941176 0 0 0 0 0.156863 0 0 0 0.06 0"/>
<feBlend mode="normal" in2="BackgroundImageFix" result="effect1_dropShadow_1_875"/>
<feColorMatrix in="SourceAlpha" type="matrix" values="0 0 0 0 0 0 0 0 0 0 0 0 0 0 0 0 0 0 127 0" result="hardAlpha"/>
<feOffset dy="1"/>
<feGaussianBlur stdDeviation="1.5"/>
<feColorMatrix type="matrix" values="0 0 0 0 0.0627451 0 0 0 0 0.0941176 0 0 0 0 0.156863 0 0 0 0.1 0"/>
<feBlend mode="normal" in2="effect1_dropShadow_1_875" result="effect2_dropShadow_1_875"/>
<feBlend mode="normal" in="SourceGraphic" in2="effect2_dropShadow_1_875" result="shape"/>
</filter>
<clipPath id="clip0_1_875">
<rect width="92" height="92" fill="white" transform="translate(226 138)"/>
</clipPath>
</defs>
</svg>
