<svg width="580" height="372" viewBox="0 0 580 372" fill="none" xmlns="http://www.w3.org/2000/svg">
<g filter="url(#filter0_d_1_843)">
<rect x="2" y="1" width="576" height="368" rx="20" fill="#FCFCFD"/>
<rect x="2.1" y="1.1" width="575.8" height="367.8" rx="19.9" stroke="#D0D5DD" stroke-width="0.2"/>
<rect x="34.15" y="21.15" width="49.7" height="49.7" rx="24.85" fill="white"/>
<rect x="34.15" y="21.15" width="49.7" height="49.7" rx="24.85" stroke="#D0D5DD" stroke-width="0.3"/>
<path d="M64.7511 37.0001H67.8179L61.1179 44.6578L69 55.0782H62.8284L57.9945 48.7583L52.4636 55.0782H49.3949L56.5613 46.8874L49 37.0001H55.3282L59.6976 42.7767L64.7511 37.0001ZM63.6748 53.2426H65.3741L54.4049 38.7393H52.5813L63.6748 53.2426Z" fill="#101828"/>
<rect x="496.15" y="21.15" width="49.7" height="49.7" rx="24.85" fill="white"/>
<rect x="496.15" y="21.15" width="49.7" height="49.7" rx="24.85" stroke="#D0D5DD" stroke-width="0.3"/>
<path fill-rule="evenodd" clip-rule="evenodd" d="M521 57.25C526.799 57.25 531.5 52.549 531.5 46.75C531.5 40.951 526.799 36.25 521 36.25C515.201 36.25 510.5 40.951 510.5 46.75C510.5 48.6332 510.996 50.4005 511.864 51.9287L510.5 57.25L515.986 55.9778C517.476 56.7891 519.184 57.25 521 57.25ZM521 55.6346C525.907 55.6346 529.885 51.6568 529.885 46.75C529.885 41.8432 525.907 37.8654 521 37.8654C516.093 37.8654 512.115 41.8432 512.115 46.75C512.115 48.6445 512.708 50.4006 513.719 51.8427L512.923 54.8269L515.96 54.0677C517.392 55.0559 519.128 55.6346 521 55.6346Z" fill="#BFC8D0"/>
<path d="M530 46C530 50.9706 525.971 55 521 55C519.104 55 517.345 54.4138 515.894 53.4127L512.818 54.1818L513.624 51.1588C512.601 49.698 512 47.9192 512 46C512 41.0294 516.029 37 521 37C525.971 37 530 41.0294 530 46Z" fill="url(#paint0_linear_1_843)"/>
<path fill-rule="evenodd" clip-rule="evenodd" d="M521 56.5C526.799 56.5 531.5 51.799 531.5 46C531.5 40.201 526.799 35.5 521 35.5C515.201 35.5 510.5 40.201 510.5 46C510.5 47.8832 510.996 49.6505 511.864 51.1787L510.5 56.5L515.986 55.2278C517.476 56.0391 519.184 56.5 521 56.5ZM521 54.8846C525.907 54.8846 529.885 50.9068 529.885 46C529.885 41.0932 525.907 37.1154 521 37.1154C516.093 37.1154 512.115 41.0932 512.115 46C512.115 47.8945 512.708 49.6506 513.719 51.0927L512.923 54.0769L515.96 53.3177C517.392 54.3059 519.128 54.8846 521 54.8846Z" fill="white"/>
<path d="M518.375 41.125C518.125 40.6236 517.742 40.668 517.356 40.668C516.664 40.668 515.586 41.4962 515.586 43.0376C515.586 44.3008 516.143 45.6836 518.018 47.7522C519.829 49.7485 522.207 50.7812 524.182 50.7461C526.156 50.7109 526.563 49.0117 526.563 48.4379C526.563 48.1835 526.405 48.0566 526.296 48.0221C525.623 47.6992 524.382 47.0975 524.1 46.9844C523.817 46.8714 523.67 47.0243 523.578 47.1075C523.322 47.3515 522.814 48.0707 522.641 48.2325C522.467 48.3942 522.208 48.3124 522.1 48.2512C521.703 48.092 520.627 47.6134 519.77 46.7821C518.709 45.754 518.647 45.4002 518.447 45.0854C518.287 44.8335 518.404 44.6789 518.463 44.6114C518.691 44.3477 519.007 43.9406 519.148 43.7383C519.29 43.536 519.178 43.2289 519.11 43.0376C518.82 42.2149 518.575 41.5262 518.375 41.125Z" fill="white"/>
<path d="M243 116C243 104.954 251.954 96 263 96H526C537.046 96 546 104.954 546 116V140C546 151.046 537.046 160 526 160H243V116Z" fill="#F2F4F7"/>
<g opacity="0.4">
<rect x="263" y="116" width="263" height="8" rx="4" fill="#B3B8DB"/>
<rect x="350" y="132" width="176" height="8" rx="4" fill="#B3B8DB"/>
</g>
<g opacity="0.4">
<path d="M34 204C34 192.954 42.9543 184 54 184H317C328.046 184 337 192.954 337 204V248H54C42.9543 248 34 239.046 34 228V204Z" fill="#4D5CD0"/>
<g opacity="0.4">
<rect x="54" y="204" width="263" height="8" rx="4" fill="#FCFCFD"/>
<rect x="141" y="220" width="176" height="8" rx="4" fill="#FCFCFD"/>
</g>
</g>
<rect x="34.15" y="299.15" width="49.7" height="49.7" rx="24.85" fill="white"/>
<rect x="34.15" y="299.15" width="49.7" height="49.7" rx="24.85" stroke="#D0D5DD" stroke-width="0.3"/>
<rect x="48.5" y="313.5" width="21" height="21" rx="6" fill="url(#paint1_radial_1_843)"/>
<rect x="48.5" y="313.5" width="21" height="21" rx="6" fill="url(#paint2_radial_1_843)"/>
<rect x="48.5" y="313.5" width="21" height="21" rx="6" fill="url(#paint3_radial_1_843)"/>
<path d="M64.25 319.875C64.25 320.496 63.7463 321 63.125 321C62.5037 321 62 320.496 62 319.875C62 319.254 62.5037 318.75 63.125 318.75C63.7463 318.75 64.25 319.254 64.25 319.875Z" fill="white"/>
<path fill-rule="evenodd" clip-rule="evenodd" d="M59 327.75C61.0711 327.75 62.75 326.071 62.75 324C62.75 321.929 61.0711 320.25 59 320.25C56.9289 320.25 55.25 321.929 55.25 324C55.25 326.071 56.9289 327.75 59 327.75ZM59 326.25C60.2426 326.25 61.25 325.243 61.25 324C61.25 322.757 60.2426 321.75 59 321.75C57.7574 321.75 56.75 322.757 56.75 324C56.75 325.243 57.7574 326.25 59 326.25Z" fill="white"/>
<path fill-rule="evenodd" clip-rule="evenodd" d="M51.5 323.7C51.5 321.18 51.5 319.92 51.9905 318.957C52.4219 318.11 53.1103 317.422 53.957 316.99C54.9196 316.5 56.1798 316.5 58.7 316.5H59.3C61.8202 316.5 63.0804 316.5 64.043 316.99C64.8897 317.422 65.5781 318.11 66.0095 318.957C66.5 319.92 66.5 321.18 66.5 323.7V324.3C66.5 326.82 66.5 328.08 66.0095 329.043C65.5781 329.89 64.8897 330.578 64.043 331.01C63.0804 331.5 61.8202 331.5 59.3 331.5H58.7C56.1798 331.5 54.9196 331.5 53.957 331.01C53.1103 330.578 52.4219 329.89 51.9905 329.043C51.5 328.08 51.5 326.82 51.5 324.3V323.7ZM58.7 318H59.3C60.5849 318 61.4583 318.001 62.1334 318.056C62.7911 318.11 63.1274 318.207 63.362 318.327C63.9265 318.615 64.3854 319.074 64.673 319.638C64.7926 319.873 64.8899 320.209 64.9437 320.867C64.9988 321.542 65 322.415 65 323.7V324.3C65 325.585 64.9988 326.458 64.9437 327.133C64.8899 327.791 64.7926 328.127 64.673 328.362C64.3854 328.926 63.9265 329.385 63.362 329.673C63.1274 329.793 62.7911 329.89 62.1334 329.944C61.4583 329.999 60.5849 330 59.3 330H58.7C57.4151 330 56.5417 329.999 55.8666 329.944C55.2089 329.89 54.8726 329.793 54.638 329.673C54.0735 329.385 53.6146 328.926 53.327 328.362C53.2074 328.127 53.1101 327.791 53.0563 327.133C53.0012 326.458 53 325.585 53 324.3V323.7C53 322.415 53.0012 321.542 53.0563 320.867C53.1101 320.209 53.2074 319.873 53.327 319.638C53.6146 319.074 54.0735 318.615 54.638 318.327C54.8726 318.207 55.2089 318.11 55.8666 318.056C56.5417 318.001 57.4151 318 58.7 318Z" fill="white"/>
<rect x="496.15" y="299.15" width="49.7" height="49.7" rx="24.85" fill="white"/>
<rect x="496.15" y="299.15" width="49.7" height="49.7" rx="24.85" stroke="#D0D5DD" stroke-width="0.3"/>
<rect x="510.5" y="313.5" width="21" height="21" rx="10.5" fill="#1275B1"/>
<path d="M518.464 319.269C518.464 319.97 517.856 320.538 517.107 320.538C516.358 320.538 515.75 319.97 515.75 319.269C515.75 318.568 516.358 318 517.107 318C517.856 318 518.464 318.568 518.464 319.269Z" fill="white"/>
<path d="M515.936 321.471H518.255V328.5H515.936V321.471Z" fill="white"/>
<path d="M521.99 321.471H519.67V328.5H521.99C521.99 328.5 521.99 326.287 521.99 324.904C521.99 324.073 522.273 323.239 523.405 323.239C524.683 323.239 524.676 324.326 524.67 325.168C524.662 326.268 524.68 327.391 524.68 328.5H527V324.79C526.98 322.422 526.363 321.33 524.332 321.33C523.127 321.33 522.379 321.878 521.99 322.373V321.471Z" fill="white"/>
</g>
<defs>
<filter id="filter0_d_1_843" x="0" y="0" width="580" height="372" filterUnits="userSpaceOnUse" color-interpolation-filters="sRGB">
<feFlood flood-opacity="0" result="BackgroundImageFix"/>
<feColorMatrix in="SourceAlpha" type="matrix" values="0 0 0 0 0 0 0 0 0 0 0 0 0 0 0 0 0 0 127 0" result="hardAlpha"/>
<feOffset dy="1"/>
<feGaussianBlur stdDeviation="1"/>
<feColorMatrix type="matrix" values="0 0 0 0 0.0627451 0 0 0 0 0.0941176 0 0 0 0 0.156863 0 0 0 0.05 0"/>
<feBlend mode="normal" in2="BackgroundImageFix" result="effect1_dropShadow_1_843"/>
<feBlend mode="normal" in="SourceGraphic" in2="effect1_dropShadow_1_843" result="shape"/>
</filter>
<linearGradient id="paint0_linear_1_843" x1="528.875" y1="39.25" x2="512" y2="55" gradientUnits="userSpaceOnUse">
<stop stop-color="#5BD066"/>
<stop offset="1" stop-color="#27B43E"/>
</linearGradient>
<radialGradient id="paint1_radial_1_843" cx="0" cy="0" r="1" gradientUnits="userSpaceOnUse" gradientTransform="translate(56 329.25) rotate(-55.3758) scale(19.1397)">
<stop stop-color="#B13589"/>
<stop offset="0.79309" stop-color="#C62F94"/>
<stop offset="1" stop-color="#8A3AC8"/>
</radialGradient>
<radialGradient id="paint2_radial_1_843" cx="0" cy="0" r="1" gradientUnits="userSpaceOnUse" gradientTransform="translate(55.25 335.25) rotate(-65.1363) scale(16.9457)">
<stop stop-color="#E0E8B7"/>
<stop offset="0.444662" stop-color="#FB8A2E"/>
<stop offset="0.71474" stop-color="#E2425C"/>
<stop offset="1" stop-color="#E2425C" stop-opacity="0"/>
</radialGradient>
<radialGradient id="paint3_radial_1_843" cx="0" cy="0" r="1" gradientUnits="userSpaceOnUse" gradientTransform="translate(47.375 314.25) rotate(-8.1301) scale(29.1682 6.23877)">
<stop offset="0.156701" stop-color="#406ADC"/>
<stop offset="0.467799" stop-color="#6A45BE"/>
<stop offset="1" stop-color="#6A45BE" stop-opacity="0"/>
</radialGradient>
</defs>
</svg>
